<?xml version="1.0" encoding="utf-8" ?>
<svg baseProfile="full" height="200mm" version="1.1" viewBox="0,0,200,200" width="200mm" xmlns="http://www.w3.org/2000/svg" xmlns:ev="http://www.w3.org/2001/xml-events" xmlns:xlink="http://www.w3.org/1999/xlink"><defs /><rect fill="#1a1a1a" height="200" width="200" x="0" y="0" /><text alignment-baseline="middle" fill="#e1ed5e" style="dominant-baseline: central; font-size:9.0px; font-family:Arial;" text-anchor="middle" x="100.0" y="100.0">2024</text><line stroke="#e1ed5e" stroke-width="0.3" x1="100.0" x2="100.0" y1="15.0" y2="10.0" /><path d="M 100.0 14.0 a86.0,86.0 0 0,1 42.35913384403234,11.155469271406648" fill="none" id="id25" stroke="none" /><text fill="#e1ed5e" style="font-size:6.75px; font-family:Arial;" text-anchor="middle"><textPath startOffset="22.145653131862478" xlink:href="#id25">January</textPath></text><path d="M 100.36049292484886 79.00309439819443 l 0.13158423872608713 -7.664122230347503 a28.6652517227804,28.6652517227804 0 0,0 0.4919321461762286,0.012670427082045441 l -0.26312969897305705 7.660734085915411" fill="#ff6008" stroke="none" /><path d="M 100.72087961077811 79.0123766808444 l 0.25785342721744026 -7.507121190668094 a28.511548239963965,28.511548239963965 0 0,0 0.4890059619724565,0.02100002007025064 l -0.38668514979073304 7.501588602172013" fill="#ff5d08" stroke="none" /><path d="M 101.44090949804482 79.04949213459386 l 0.5642382832964682 -8.2039008058494 a29.22328117435819,29.22328117435819 0 0,0 0.5001787299269314,0.03871699704771694 l -0.7049860079986331 8.19300604180663" fill="#ff6709" stroke="none" /><path d="M 101.80034050326958 79.07731436759882 l 1.5991500509615575 -18.584547608934706 a39.65322199284218,39.65322199284218 0 0,0 0.677693270782003,0.0641782573380927 l -1.9179428851285736 18.55435759609143" fill="#ffef16" stroke="none" /><path d="M 102.15924093988457 79.11130261209362 l 0.6370837484641102 -6.163207350603165 a27.196047171308976,27.196047171308976 0 0,0 0.4639698723738674,0.05198879194803549 l -0.7427895224387743 6.151362798148158" fill="#ff4b07" stroke="none" /><path d="M 102.87502721639298 79.19773525538626 l 1.2449500913820861 -9.007838690046446 a30.093462409661676,30.093462409661676 0 0,0 0.5111229774697748,0.07511747620166156 l -1.399398174459543 8.985140140545901" fill="#ff730a" stroke="none" /><path d="M 103.23170211078529 79.25015418208739 l 1.184839419606005 -7.607519020320691 a28.699233084846398,28.699233084846398 0 0,0 0.48614108825730906,0.07999433107436016 l -1.3152580109163845 7.586058690750662" fill="#ff6008" stroke="none" /><path d="M 103.58742460773223 79.30868818359171 l 0.99391587186493 -5.732642626052259 a26.818166398305944,26.818166398305944 0 0,0 0.4529272443489218,0.08253843172071408 l -1.0921778497649055 5.714736020400179" fill="#ff4606" stroke="none" /><path d="M 103.94208987418118 79.37332000966035 l 0.5842534281668432 -3.0570608181680723 a24.11239022526147,24.11239022526147 0 0,0 0.4058959374704253,0.08119055527280078 l -0.6366458511682255 3.0465808662324125" fill="#ff2003" stroke="none" /><path d="M 104.29559338865022 79.4440306129975 l 2.3714698706749218 -11.34834181293642 a32.593477961800765,32.593477961800765 0 0,0 0.5466975195829624,0.1191501798799151 l -2.5659298068770187 11.305960174922786" fill="#ff950d" stroke="none" /><path d="M 104.64783097203109 79.52079915486377 l 2.950947882659623 -13.002420857423507 a34.33308072276378,34.33308072276378 0 0,0 0.5736368613652763,0.13537673735000993 l -3.173716897764784 12.94984797642727" fill="#ffab0f" stroke="none" /><path d="M 105.3480935250658 79.69241777938227 l 2.0444956574098434 -7.76328302187562 a29.02798391695636,29.02798391695636 0 0,0 0.4807844142707633,0.13103993006282164 l -2.1774614726152994 7.727042597668656" fill="#ff6509" stroke="none" /><path d="M 105.69591212413111 79.78721728523813 l 2.087936317981361 -7.409349406712467 a28.697917685887266,28.697917685887266 0 0,0 0.47302366059365486,0.13769029367811866 l -2.21481999095662 7.3724154187318325" fill="#ff6008" stroke="none" /><path d="M 106.38641147887787 79.99465700312896 l 2.677719902002629 -8.387919454654803 a29.804963182850766,29.804963182850766 0 0,0 0.4860724854939315,0.15978168060819095 l -2.821315125144303 8.34071685264459" fill="#ff6f0a" stroke="none" /><path d="M 107.06938296918511 80.22567764915836 l 6.324048147448615 -17.689488202151644 a39.78594096193508,39.78594096193508 0 0,0 0.6411425730079696,0.23543643355851368 l -6.626779872110709 17.578320919584407" fill="#fff016" stroke="none" /><path d="M 107.74402155503746 80.48000691201159 l 2.9936781585097734 -7.54602457475855 a29.11816455854391,29.11816455854391 0 0,0 0.46304195964992323,0.18831513390816332 l -3.1227745793501365 7.493522184271094" fill="#ff6609" stroke="none" /><path d="M 108.07796709384702 80.6158196554323 l 2.9537512179452867 -7.087927647693659 a28.67876061591019,28.67876061591019 0 0,0 0.4528033860866426,0.19327484016670696 l -3.074989679202359 7.036178157867551" fill="#ff6008" stroke="none" /><path d="M 108.4095320186766 80.7573450057729 l 3.0886676507492146 -7.06747603352965 a28.71291678558123,28.71291678558123 0 0,0 0.44995409900268296,0.20125874529881374 l -3.209535152607529 7.013413537320984" fill="#ff6008" stroke="none" /><path d="M 109.06512990194946 81.05736502329252 l 7.5505199787075075 -15.777682767704803 a38.49130142291277,38.49130142291277 0 0,0 0.5935720694464149,0.2903458434419575 l -7.82025229741599 15.645743174165624" fill="#ffe015" stroke="none" /><path d="M 109.3889696526874 81.21577127319529 l 2.017222056955159 -4.035795397395434 a25.51185431022596,25.51185431022596 0 0,0 0.39005533060107894,0.19916503105917546 l -2.0862046092698168 4.0005724146634245" fill="#ff3404" stroke="none" /><path d="M 110.02825361518725 81.54914285379988 l 3.655456866996445 -6.7256289125859166 a28.65483175362353,28.65483175362353 0 0,0 0.4301715356066163,0.23860889940523133 l -3.770372590759161 6.661887097747539" fill="#ff5f08" stroke="none" /><path d="M 110.34350942703115 81.72400993836675 l 4.055072109435326 -7.16492386786733 a29.232845428225602,29.232845428225602 0 0,0 0.43460545374118,0.25091957570874973 l -4.177470031036903 7.094257394882408" fill="#ff6709" stroke="none" /><line stroke="#e1ed5e" stroke-width="0.3" x1="143.13028292997686" x2="145.6673583964461" y1="26.7553504044142" y2="22.446841604673864" /><path d="M 143.63769802327073 25.89364864446614 a86.0,86.0 0 0,1 29.32050498858742,28.57503671076993" fill="none" id="id26" stroke="none" /><text fill="#e1ed5e" style="font-size:6.75px; font-family:Arial;" text-anchor="middle"><textPath startOffset="20.669276256404974" xlink:href="#id26">February</textPath></text><path d="M 111.27062007382361 82.28071324371311 l 10.067626085624541 -15.827980394847561 a39.758519621218156,39.758519621218156 0 0,0 0.5727392107433419,0.37124263676499963 l -10.33785092862489 15.652823916378667" fill="#fff016" stroke="none" /><path d="M 112.16784306229584 82.88440491214696 l 4.717516300872965 -6.63577746792974 a29.141775153668036,29.141775153668036 0 0,0 0.40523579696586415,0.29335946610974856 l -4.8307331082127964 6.553817230446917" fill="#ff6609" stroke="none" /><path d="M 112.7482090630111 83.31218511350987 l 4.933043704663708 -6.45751256223509 a29.126154606180357,29.126154606180357 0 0,0 0.3947149500921826,0.30693273260371295 l -5.043168599391117 6.371878778010586" fill="#ff6609" stroke="none" /><path d="M 113.03279911837588 83.53348406188908 l 8.336641706084798 -10.533074459040119 a34.432991196874795,34.432991196874795 0 0,0 0.460335035851749,0.3708133194747518 l -8.516227512291808 10.388412845771958" fill="#ffad10" stroke="none" /><path d="M 113.31354834802062 83.75963576809568 l 5.167052510034656 -6.302963911256181 a29.1502015746884,29.1502015746884 0 0,0 0.38426304572515046,0.3205658995327286 l -5.2744898899217 6.213335827811582" fill="#ff6609" stroke="none" /><path d="M 113.59037401385872 83.9905735841838 l 4.398536803638125 -5.181465294722237 a27.79666893510123,27.79666893510123 0 0,0 0.36111912760637427,0.3119261015472499 l -4.48683541100736 5.105195060710267" fill="#ff5407" stroke="none" /><path d="M 113.86319453409587 84.22622945171908 l 4.625528456645575 -5.263002287115327 a28.006761489976604,28.006761489976604 0 0,0 0.3583998237034753,0.3204833323586282 l -4.7151933071724255 5.1828234248733125" fill="#ff5708" stroke="none" /><path d="M 114.13192950727249 84.46653392183569 l 3.124315922095779 -3.4341704979754137 a25.642723014592395,25.642723014592395 0 0,0 0.3230619567668269,0.2990213241484099 l -3.1828076501765707 3.380031427694629" fill="#ff3605" stroke="none" /><path d="M 114.65682725009322 84.96080404539774 l 5.28062033364595 -5.418381659581445 a28.565963978040315,28.565963978040315 0 0,0 0.3482436946502266,0.34526727070069885 l -5.372855948426139 5.326934378652086" fill="#ff5e08" stroke="none" /><path d="M 115.16444852881244 85.47280134310134 l 11.27088286417913 -10.79725082619853 a36.608120512793704,36.608120512793704 0 0,0 0.430832543934139,0.4575292316173251 l -11.45457124184953 10.60218013463671" fill="#ffc812" stroke="none" /><path d="M 115.41159269507618 85.73525988315684 l 6.367668779195211 -5.893819158248045 a29.676653153818535,29.676653153818535 0 0,0 0.3428392517349773,0.3768403942538722 l -6.467905731772066 5.7836411884365" fill="#ff6d0a" stroke="none" /><path d="M 116.1254893667686 86.54754324733833 l 4.8730596243898505 -4.065279655037394 a27.34611761445685,27.34611761445685 0 0,0 0.29762105534565275,0.3630492950150076 l -4.9421274989741315 3.9810280783238916" fill="#ff4d07" stroke="none" /><path d="M 116.35404254752997 86.82634096563983 l 4.983186323290926 -4.014102160791828 a27.39884068327282,27.39884068327282 0 0,0 0.2919066867786612,0.3688145629057312 l -5.051359440711146 3.927967653971419" fill="#ff4e07" stroke="none" /><path d="M 116.57777611688842 87.10902102172516 l 5.019904238938309 -3.903507898817773 a27.358994612691816,27.358994612691816 0 0,0 0.2851172320267513,0.37322760910912295 l -5.086173448319367 3.816759376467768" fill="#ff4e07" stroke="none" /><path d="M 117.01052211995028 87.68569379921539 l 10.847664978706462 -7.8528728965145635 a34.391767927315186,34.391767927315186 0 0,0 0.3420914788036996,0.48119450622699433 l -10.980871556040121 7.665501163578065" fill="#ffac0f" stroke="none" /><line stroke="#e1ed5e" stroke-width="0.3" x1="172.87174338648825" x2="177.1583165268699" y1="56.24261187166439" y2="53.66864786411523" /><path d="M 173.72905801456457 55.72781907015455 a86.0,86.0 0 0,1 12.242430191666344,42.057860355516425" fill="none" id="id27" stroke="none" /><text fill="#e1ed5e" style="font-size:6.75px; font-family:Arial;" text-anchor="middle"><textPath startOffset="22.145653131862474" xlink:href="#id27">March</textPath></text><path d="M 119.31412917781788 91.75594674310238 l 5.782277484838905 -2.4681104228048665 a27.286994669222565,27.286994669222565 0 0,0 0.18019052099485353,0.4323916543317344 l -5.823793850370242 2.3684862590318545" fill="#ff4d07" stroke="none" /><path d="M 119.4528033332814 92.08871423366111 l 8.84442716361044 -3.5969515309487927 a30.54787684086913,30.54787684086913 0 0,0 0.1933845344855611,0.4874553550314539 l -8.904870373062126 3.4445951587037733" fill="#ff790b" stroke="none" /><path d="M 119.71291397450082 92.76114493625339 l 5.9164633707714085 -2.1726073013040907 a27.302758229803807,27.302758229803807 0 0,0 0.15778371886191997,0.4413491434953158 l -5.952887259677271 2.0707232014278585" fill="#ff4d07" stroke="none" /><path d="M 119.94978838288452 93.4421083053983 l 6.715808063307029 -2.207619503306846 a28.069346632791497,28.069346632791497 0 0,0 0.14654241885870406,0.45904203989290454 l -6.75271519794299 2.0920084297225547" fill="#ff5708" stroke="none" /><path d="M 120.16314734710363 94.1308016681162 l 12.778966051354676 -3.719770774902578 a34.30934513638799,34.30934513638799 0 0,0 0.1597533096842677,0.566908138019206 l -12.840937853113525 3.499854712980359" fill="#ffab0f" stroke="none" /><path d="M 120.26092885502905 94.47779374421319 l 6.844703124881665 -1.865554273729316 a28.094381834662872,28.094381834662872 0 0,0 0.12282665631955013,0.46639282024562767 l -6.875719262005945 1.7477809491108898" fill="#ff5808" stroke="none" /><path d="M 120.35273937422433 94.82641323984039 l 8.075883283847379 -2.052857950258083 a29.332713638321152,29.332713638321152 0 0,0 0.11986251006160273,0.4890799442331832 l -8.109933320425272 1.9139221814168046" fill="#ff6909" stroke="none" /><path d="M 120.51834098615036 95.52812308129327 l 7.9245428087387255 -1.7271172216906847 a29.1105679594584,29.1105679594584 0 0,0 0.10222285335872874,0.48917335841100396 l -7.953023372921821 1.5908274119942762" fill="#ff6609" stroke="none" /><path d="M 120.65975698304385 96.23510406497455 l 7.204258718982812 -1.3128559250832934 a28.32290477679904,28.32290477679904 0 0,0 0.08306053618234463,0.4790711002212212 l -7.225734072657391 1.1889917919414794" fill="#ff5b08" stroke="none" /><path d="M 120.77682067341334 96.94652285012252 l 20.01498296689875 -2.941513242342097 a41.22997882648721,41.22997882648721 0 0,0 0.09690121606664892,0.7011289281714999 l -20.06252869952061 2.5974960059705117" fill="#fcff18" stroke="none" /><path d="M 120.96210409425399 98.7389718711861 l 13.194729291129047 -0.7937621487510659 a34.21858310920534,34.21858310920534 0 0,0 0.030240119693096222,0.5866502433331664 l -13.206411000278715 0.5671401120411688" fill="#ffaa0f" stroke="none" /><path d="M 120.98066250479742 99.09900007780936 l 9.532919989179323 -0.40938460196555726 a30.541706308225024,30.541706308225024 0 0,0 0.017998246438791547,0.5239993072559989 l -9.538542922614964 0.24567903014543852" fill="#ff790b" stroke="none" /><line stroke="#e1ed5e" stroke-width="0.3" x1="184.99686870605535" x2="189.99668451229388" y1="99.2704041080226" y2="99.22748670261217" /><path d="M 185.99683186730306 99.26182062694052 a86.0,86.0 0 0,1 -10.086455211305974,41.156179273409016" fill="none" id="id28" stroke="none" /><text fill="#e1ed5e" style="font-size:6.75px; font-family:Arial;" text-anchor="middle"><textPath startOffset="21.40746469413373" xlink:href="#id28">April</textPath></text><path d="M 120.99922638620191 99.81974689727618 l 6.615905134696181 -0.056789588622135186 a27.616148865365346,27.616148865365346 0 0,0 0.0,0.4740853826919233 l -6.615905134696181 -0.05678958862213438" fill="#ff5107" stroke="none" /><path d="M 120.99922638620191 100.18025310272382 l 7.477241472523936 0.06418312515185372 a28.477516934918047,28.477516934918047 0 0,0 -0.008392145783420023,0.48880041927305795 l -7.475037895141848 -0.19253046039398275" fill="#ff5d08" stroke="none" /><path d="M 120.98066250479742 100.90099992219065 l 7.806766632527547 0.33525614965015854 a28.81396198740586,28.81396198740586 0 0,0 -0.025463873140237486,0.49399233619222793 l -7.799861169930737 -0.46922027921911713" fill="#ff6209" stroke="none" /><path d="M 120.93736805541906 101.62068470465957 l 14.224518117645447 1.1010676644457305 a35.26706927441342,35.26706927441342 0 0,0 -0.051903683301901614,0.6031994763863785 l -14.203520811645806 -1.3450881882077663" fill="#ffb711" stroke="none" /><path d="M 120.86939407059847 102.33845913500097 l 7.64423294559399 0.8565522458979138 a28.692072482527536,28.692072482527536 0 0,0 -0.059048167313397765,0.4890035316032609 l -7.628402692020929 -0.9876494544245833" fill="#ff6008" stroke="none" /><path d="M 120.77682067341334 103.0534771498775 l 7.566535102073928 1.112020092058337 a28.647812898865816,28.647812898865816 0 0,0 -0.07568275776815087,0.48593759601869685 l -7.54633085216751 -1.2417458700084842" fill="#ff5f08" stroke="none" /><path d="M 120.7213421655516 103.40968896794604 l 7.444967609366635 1.225066586978838 a28.54508653675028,28.54508653675028 0 0,0 -0.08371211257455861,0.4828292197018297 l -7.422840679299841 -1.3526888396012555" fill="#ff5e08" stroke="none" /><path d="M 120.592083275326 104.11899336999214 l 18.462938444730394 3.693104773694318 a39.82867809707807,39.82867809707807 0 0,0 -0.13985989989133485,0.6692802508337147 l -18.396820834014697 -4.009501475813442" fill="#fff116" stroke="none" /><path d="M 120.51834098615036 104.47187691870673 l 3.004701315250159 0.654860666773425 a24.075235354692868,24.075235354692868 0 0,0 -0.09147344222606713,0.40304886443083454 l -2.993017011466428 -0.7063438651432765" fill="#ff1f03" stroke="none" /><path d="M 120.35273937422433 105.17358676015961 l 8.064813469594307 2.0500440467631225 a29.32129178030783,29.32129178030783 0 0,0 -0.12819062008695506,0.4867606643613708 l -8.028433368702622 -2.1881852154972967" fill="#ff6909" stroke="none" /><path d="M 120.05942366710727 106.21446072829308 l 6.677164741946569 2.068602705331565 a27.990253653738144,27.990253653738144 0 0,0 -0.1461294959425863,0.45774856473936065 l -6.640670530226728 -2.182920303762309" fill="#ff5608" stroke="none" /><path d="M 119.94978838288452 106.5578916946017 l 7.376126349995857 2.424679239729182 a28.76442588648233,28.76442588648233 0 0,0 -0.15822431095190276,0.46776206071170606 l -7.33341661747159 -2.5509429749150487" fill="#ff6108" stroke="none" /><path d="M 119.83427380445688 106.89939002012753 l 15.427517776957593 5.366491520438899 a37.334244273834194,37.334244273834194 0 0,0 -0.215756073171924,0.6035081362334503 l -15.333121533741727 -5.630534613053271" fill="#ffd213" stroke="none" /><path d="M 119.58574465831526 107.57618678355244 l 7.173909524906701 2.775022317363058 a28.691926074359408,28.691926074359408 0 0,0 -0.1816353652428259,0.4578397734143549 l -7.125215484697751 -2.897763107990977" fill="#ff6008" stroke="none" /><path d="M 119.4528033332814 107.91128576633889 l 5.647300195371336 2.2967078260358713 a27.09646342848176,27.09646342848176 0 0,0 -0.17893234199965302,0.42937248276724116 l -5.607042008835198 -2.3933128182443903" fill="#ff4a06" stroke="none" /><path d="M 119.31412917781788 108.2440532568976 l 2.7656582153074623 1.1804950359116884 a24.007063998938133,24.007063998938133 0 0,0 -0.1650384111284266,0.3776401824841931 l -2.74498592216207 -1.2277972881717263" fill="#ff1e03" stroke="none" /><path d="M 119.16976305983485 108.57439118712176 l 2.856471610284425 1.2776634184281512 a24.129193805303597,24.129193805303597 0 0,0 -0.17236923434850882,0.3766578847455046 l -2.83411791108086 -1.3265102853883446" fill="#ff2003" stroke="none" /><path d="M 119.0197475246899 108.90220220490707 l 17.0712974828414 7.990229202311823 a39.84868590785956,39.84868590785956 0 0,0 -0.29529914620492875,0.6170616412557343 l -16.931619078676555 -8.28210334563266" fill="#fff116" stroke="none" /><path d="M 118.8641267826498 109.22738970284198 l 5.676490223253983 2.776655820746095 a27.319205551458285,27.319205551458285 0 0,0 -0.20968152008431287,0.41950350025046884 l -5.6279887899579375 -2.8736911771603095" fill="#ff4d07" stroke="none" /><path d="M 118.5362547648365 109.86951160357373 l 6.769075267761016 3.6041513104020253 a28.668786517362868,28.668786517362868 0 0,0 -0.23502213904043281,0.4324142647391976 l -6.706207779105244 -3.7198204086158264" fill="#ff6008" stroke="none" /><line stroke="#e1ed5e" stroke-width="0.3" x1="174.33088141563837" x2="178.70328620479359" y1="141.23008692659167" y2="143.65538615756765" /><path d="M 175.20536237346943 141.71514677278685 a86.0,86.0 0 0,1 -30.301960400862466,31.631185727798858" fill="none" id="id29" stroke="none" /><text fill="#e1ed5e" style="font-size:6.75px; font-family:Arial;" text-anchor="middle"><textPath startOffset="22.145653131862474" xlink:href="#id29">May</textPath></text><path d="M 118.36410011445183 110.18625677009912 l 5.736005706431344 3.181665673586834 a27.559326026558956,27.559326026558956 0 0,0 -0.23302937070546775,0.41174056959351985 l -5.680542970704498 -3.279663013279477" fill="#ff5007" stroke="none" /><path d="M 118.00360718960297 110.81064883170644 l 0.784371655807951 0.47099264248449035 a21.91491691628772,21.91491691628772 0 0,0 -0.19643282952112018,0.32085826452250243 l -0.7761708618314261 -0.4843880231315498" fill="#ff0000" stroke="none" /><path d="M 117.81537515405839 111.11811171558189 l 2.5680745529383957 1.6026684550062846 a24.0271361195232,24.0271361195232 0 0,0 -0.22137265523925267,0.348034583056815 l -2.540184206073253 -1.6465167127417715" fill="#ff1f03" stroke="none" /><path d="M 117.62189284568427 111.42229804090321 l 15.761053530204212 10.216124478631835 a39.7824388124882,39.7824388124882 0 0,0 -0.37637135010347395,0.56987419445436 l -15.583357741180011 -10.485178551425255" fill="#fff016" stroke="none" /><path d="M 117.423217284605 111.72311816256416 l 6.28435872987795 4.228397015481003 a28.57446407122787,28.57446407122787 0 0,0 -0.27732233536752976,0.40462157517962777 l -6.2108466576951 -4.335653325730675" fill="#ff5e08" stroke="none" /><path d="M 117.01052211995028 112.31430620078461 l 7.7252783621212675 5.5925057776965605 a30.537087954183313,30.537087954183313 0 0,0 -0.311039116247182,0.4219842979812078 l -7.628137226290257 -5.724296384946645" fill="#ff790b" stroke="none" /><path d="M 116.79662413953412 112.60449989151573 l 3.0082901837050153 2.2574770370023556 a24.761118504111362,24.761118504111362 0 0,0 -0.25804389633907215,0.3377877436282018 l -2.9690943100116387 -2.308785693871435" fill="#ff2904" stroke="none" /><path d="M 116.35404254752997 113.17365903436017 l 7.79651454770447 6.2803202333235975 a31.011396572190176,31.011396572190176 0 0,0 -0.3375120631631613,0.41170983836522856 l -7.687555665302681 -6.413232353387319" fill="#ff7f0b" stroke="none" /><path d="M 116.1254893667686 113.45245675266167 l 10.120284495187226 8.442701266276076 a34.179505413144554,34.179505413144554 0 0,0 -0.37972687759641105,0.44731730699891964 l -9.9738630540837 -8.615185355724552" fill="#ffa90f" stroke="none" /><path d="M 115.6541949942343 113.99807769240083 l 7.003455393745524 6.262532998536261 a30.39508951580233,30.39508951580233 0 0,0 -0.351138980935739,0.38596325054406866 l -6.894918711967905 -6.381833824638001" fill="#ff770b" stroke="none" /><path d="M 115.41159269507618 114.26474011684316 l 4.713160339554333 4.362430846893237 a27.422202369925255,27.422202369925255 0 0,0 -0.3227255877062254,0.3427233904341492 l -4.637578918111848 -4.442695697271883" fill="#ff4e07" stroke="none" /><path d="M 115.16444852881244 114.52719865689866 l 6.812393096067118 6.526118483466017 a30.433924006243622,30.433924006243622 0 0,0 -0.3646465225116286,0.3741594557022401 l -6.699359772404682 -6.642100631235994" fill="#ff780b" stroke="none" /><path d="M 114.39649973595853 115.28858382429668 l 9.584043867977837 10.17792246300902 a34.98012884512683,34.98012884512683 0 0,0 -0.44070003276295694,0.4079053710559247 l -9.407914063900911 -10.340945580197324" fill="#ffb410" stroke="none" /><path d="M 113.86319453409587 115.77377054828091 l 4.666348178105446 5.309447636963742 a28.068595300975144,28.068595300975144 0 0,0 -0.364651846301805,0.31497757981657365 l -4.5745168520407855 -5.388769349245033" fill="#ff5708" stroke="none" /><path d="M 113.59037401385872 116.0094264158162 l 4.467063045288725 5.262189035079859 a27.902556460580303,27.902556460580303 0 0,0 -0.36781637003740286,0.3068454977277215 l -4.376072341089427 -5.338096716719451" fill="#ff5507" stroke="none" /><path d="M 113.31354834802062 116.24036423190432 l 4.4601068779039945 5.440605187808667 a28.035107545157864,28.035107545157864 0 0,0 -0.3748016593481294,0.3019136859534703 l -4.366054448200613 -5.516367167555541" fill="#ff5708" stroke="none" /><path d="M 112.7482090630111 116.68781488649013 l 2.7164826656880456 3.555963009650704 a25.47483530411877,25.47483530411877 0 0,0 -0.3497901246634827,0.2624890306378207 l -2.6550395521137964 -3.6020710675525396" fill="#ff3304" stroke="none" /><path d="M 111.5731344415666 117.5232005979908 l 7.262266231279655 10.995996686054367 a34.17772567379149,34.17772567379149 0 0,0 -0.49234538443335246,0.319132329841521 l -7.0724352145892935 -11.119042857599784" fill="#ffa90f" stroke="none" /><path d="M 111.27062007382361 117.71928675628689 l 3.4690469501302226 5.45391799898781 a27.463707007738748,27.463707007738748 0 0,0 -0.3999707980655139,0.24961135970520282 l -3.3749120232749936 -5.5126651555345605" fill="#ff4f07" stroke="none" /><path d="M 110.96478420261333 117.91015095944535 l 3.5774587883415663 5.843510074290465 a27.851629103404274,27.851629103404274 0 0,0 -0.40990601106542063,0.2461367820884784 l -3.476620020718709 -5.9040608569148665" fill="#ff5407" stroke="none" /><line stroke="#e1ed5e" stroke-width="0.3" x1="143.1302829299769" x2="145.66735839644613" y1="173.24464959558577" y2="177.55315839532614" /><path d="M 143.63769802327073 174.10635135553383 a86.0,86.0 0 0,1 -40.68552437913181,11.842963189579606" fill="none" id="id30" stroke="none" /><text fill="#e1ed5e" style="font-size:6.75px; font-family:Arial;" text-anchor="middle"><textPath startOffset="21.407464694133747" xlink:href="#id30">June</textPath></text><path d="M 110.34350942703117 118.27599006163325 l 3.4293840589957907 6.05939303501171 a27.962536820501768,27.962536820501768 0 0,0 -0.4197786784077327,0.23284415670926265 l -3.3248611924319635 -6.117370107154117" fill="#ff5608" stroke="none" /><path d="M 109.71004243097381 118.62028667847754 l 6.062151172674166 11.624974198196298 a34.11067130047445,34.11067130047445 0 0,0 -0.5215241906503859,0.2662939677530657 l -5.861699760310198 -11.7273261176222" fill="#ffa80f" stroke="none" /><path d="M 109.3889696526874 118.78422872680471 l 3.388297092266901 6.778863914773792 a28.57849280269412,28.57849280269412 0 0,0 -0.4407072374138194,0.21557199394039359 l -3.2714296055910124 -6.836029658811409" fill="#ff5e08" stroke="none" /><path d="M 108.4095320186766 119.2426549942271 l 7.526351387291221 17.221764872209725 a39.79455108585085,39.79455108585085 0 0,0 -0.6283084447336463,0.2681875135272281 l -7.229607867387144 -17.348427035396355" fill="#fff016" stroke="none" /><path d="M 107.74402155503746 119.51999308798841 l 3.1010726655248995 7.816728887721046 a29.40939368688364,29.40939368688364 0 0,0 -0.47086923337037934,0.18214233489088044 l -2.9664311696609906 -7.868811110749967" fill="#ff6a09" stroke="none" /><path d="M 107.06938296918513 119.77432235084164 l 2.5813092992210547 7.2203815230434465 a28.66792455861117,28.66792455861117 0 0,0 -0.4648220399836128,0.16168923427272888 l -2.45698148719242 -7.263629189884766" fill="#ff6008" stroke="none" /><path d="M 106.0420521117495 120.11202640906438 l 4.551523094582108 15.150540079204301 a36.81945723380199,36.81945723380199 0 0,0 -0.6068898319535323,0.17665678517449088 l -4.290773250246969 -15.22644055868131" fill="#ffcb12" stroke="none" /><path d="M 105.69591212413111 120.21278271476187 l 1.9925435428916938 7.070834100748242 a28.34621839116042,28.34621839116042 0 0,0 -0.469492474743457,0.1279622617316305 l -1.8708696672135416 -7.103996856624015" fill="#ff5b08" stroke="none" /><path d="M 104.9986988182912 120.39639698878246 l 1.6298458792400272 6.650327373569359 a27.847134566059122,27.847134566059122 0 0,0 -0.46526972046232995,0.10980238716534275 l -1.5154440050378182 -6.677325904380927" fill="#ff5407" stroke="none" /><path d="M 104.64783097203109 120.47920084513623 l 1.377606354238873 6.069987782207392 a27.22435144761174,27.22435144761174 0 0,0 -0.4566399887151471,0.09952256018515886 l -1.27320394890459 -6.09274180052627" fill="#ff4c07" stroke="none" /><path d="M 103.94208987418118 120.62667999033965 l 1.165368649484745 6.097701212022488 a27.20806283475791,27.20806283475791 0 0,0 -0.45951213594519014,0.08373841832383823 l -1.0605217799884976 -6.11680780427769" fill="#ff4b07" stroke="none" /><path d="M 103.58742460773223 120.69131181640829 l 3.3101421386040504 19.09202021942567 a40.376848996591804,40.376848996591804 0 0,0 -0.6839501687579376,0.1125437399955515 l -2.9819144667930404 -19.14602995791689" fill="#fff717" stroke="none" /><path d="M 103.2317021107853 120.74984581791261 l 0.7578195945756173 4.865745420272048 a25.924405449678282,25.924405449678282 0 0,0 -0.44031355123559734,0.06471092900174949 l -0.6741809377323345 -4.87803742257268" fill="#ff3905" stroke="none" /><path d="M 102.875027216393 120.80226474461374 l 1.0451554610405291 7.56222427247869 a28.634106750957095,28.634106750957095 0 0,0 -0.4874918197054397,0.06311557598710982 l -0.9151858194443141 -7.579051444666194" fill="#ff5f08" stroke="none" /><path d="M 102.15924093988457 120.88869738790638 l 0.7386827303533454 7.1460853372150215 a28.1841622909621,28.1841622909621 0 0,0 -0.48168134056447076,0.045615723753657224 l -0.6159018264038594 -7.157712816473863" fill="#ff5908" stroke="none" /><path d="M 101.80034050326958 120.92268563240118 l 0.6778414236987849 7.877544826055218 a28.906654253360983,28.906654253360983 0 0,0 -0.4947594188557259,0.03829750809668728 l -0.5425130100678232 -7.888020101146959" fill="#ff6309" stroke="none" /><path d="M 101.08105385017728 120.97215588758144 l 0.9659697898045554 18.73955586130445 a39.76443581655907,39.76443581655907 0 0,0 -0.6820059726364902,0.02928827095609836 l -0.6441380565672357 -18.753376700686378" fill="#fff016" stroke="none" /><path d="M 100.72087961077811 120.9876233191556 l 0.21467228136295313 6.249949243877623 a27.253634922141845,27.253634922141845 0 0,0 -0.4677070080531686,0.012046473456476295 l -0.10735195923904067 -6.252713434684144" fill="#ff4c07" stroke="none" /><line stroke="#e1ed5e" stroke-width="0.3" x1="101.45913802915013" x2="101.54496967792366" y1="184.9874750549273" y2="189.98673829345242" /><path d="M 101.47630435890484 185.9873277026323 a86.0,86.0 0 0,1 -42.54439059252881,-10.42667462771756" fill="none" id="id31" stroke="none" /><text fill="#e1ed5e" style="font-size:6.75px; font-family:Arial;" text-anchor="middle"><textPath startOffset="22.145653131862474" xlink:href="#id31">July</textPath></text><path d="M 100.0 121.0 l 9.393902911073886e-16 7.670703845071319 a28.67070384507132,28.67070384507132 0 0,0 -0.49217075650404724,-0.0042246940100650835 l 0.13167783165519414 -7.669573549255689" fill="#ff6008" stroke="none" /><path d="M 99.63950707515114 120.99690560180557 l -0.11872560881021467 6.915171502326165 a27.91619061888633,27.91619061888633 0 0,0 -0.4790773057576111,-0.012339331992117009 l 0.23741622863856965 -6.912114452984" fill="#ff5507" stroke="none" /><path d="M 99.27912038922189 120.98762331915562 l -0.26481067073757714 7.709673744738419 a28.714220241971667,28.714220241971667 0 0,0 -0.4924820207424831,-0.021149296990399254 l 0.39711845208089896 -7.703991879322191" fill="#ff6008" stroke="none" /><path d="M 98.55909050195518 120.95050786540614 l -4.322728494134462 62.8515235962184 a84.0,84.0 0 0,0 -1.4377240208990556,-0.1112889320197854 l 5.4010215098087535 -62.76805689720356" fill="#4dd2ff" stroke="none" /><path d="M 98.19965949673042 120.92268563240118 l -0.655993422535052 7.623637934989344 a28.651809115118976,28.651809115118976 0 0,0 -0.48967365720120953,-0.046372604448736664 l 0.7867666431212768 -7.611253575035424" fill="#ff5f08" stroke="none" /><path d="M 97.48249496171623 120.84855314841334 l -1.2488618286404232 10.342367468382276 a31.41749589479579,31.41749589479579 0 0,0 -0.5348786458592585,-0.0692507493500322 l 1.4262182963904757 -10.319405122831846" fill="#ff850c" stroke="none" /><path d="M 97.12497278360702 120.80226474461374 l -1.268056517931909 9.175025282107466 a30.262238188471553,30.262238188471553 0 0,0 -0.5139895528546751,-0.0755387640672977 l 1.425371176394269 -9.151905444741287" fill="#ff750a" stroke="none" /><path d="M 96.76829788921471 120.74984581791261 l -1.0552196761225503 6.775267284226903 a27.85694796083444,27.85694796083444 0 0,0 -0.4718734802832808,-0.07764660161169386 l 1.1713706594588946 -6.756154684119541" fill="#ff5407" stroke="none" /><path d="M 96.05791012581884 120.62667999033965 l -3.637363769722558 19.032224246817012 a40.37668637756259,40.37668637756259 0 0,0 -0.6796809779563174,-0.13595523116723204 l 3.9635412332098334 -18.96697961898692" fill="#fff717" stroke="none" /><path d="M 95.70440661134978 120.55596938700252 l -1.530082721864771 7.321999720303338 a28.480162634586982,28.480162634586982 0 0,0 -0.47770398384289936,-0.10411335988437091 l 1.6555491223268068 -7.294654902285248" fill="#ff5d08" stroke="none" /><path d="M 94.6519064749342 120.30758222061772 l -2.100347302597138 7.975360815856186 a29.247292824595313,29.247292824595313 0 0,0 -0.484416781747785,-0.13202994797110226 l 2.2369454852796182 -7.93813037374094" fill="#ff6809" stroke="none" /><path d="M 94.30408787586889 120.21278271476187 l -1.7482581174582554 6.203951305321952 a27.445573538798904,27.445573538798904 0 0,0 -0.4523814516618835,-0.13168164750085723 l 1.8544995815017458 -6.173025963518578" fill="#ff4f07" stroke="none" /><line stroke="#e1ed5e" stroke-width="0.3" x1="58.13341422392154" x2="55.67067388415222" y1="173.97424548756322" y2="178.32567169271397" /><path d="M 57.64086615596768 174.84453072859336 a86.0,86.0 0 0,1 -31.369924170532247,-30.572349798747897" fill="none" id="id32" stroke="none" /><text fill="#e1ed5e" style="font-size:6.75px; font-family:Arial;" text-anchor="middle"><textPath startOffset="22.145653131862474" xlink:href="#id32">August</textPath></text><line stroke="#e1ed5e" stroke-width="0.3" x1="26.387840678322732" x2="22.057713659400548" y1="142.50000000000003" y2="145.00000000000006" /><path d="M 25.521815274538298 143.00000000000003 a86.0,86.0 0 0,1 -11.493303480769221,-40.785679425670985" fill="none" id="id33" stroke="none" /><text fill="#e1ed5e" style="font-size:6.75px; font-family:Arial;" text-anchor="middle"><textPath startOffset="21.40746469413373" xlink:href="#id33">September</textPath></text><line stroke="#e1ed5e" stroke-width="0.3" x1="15.003131293944662" x2="10.003315487706104" y1="100.72959589197737" y2="100.7725132973878" /><path d="M 14.003168132696942 100.73817937305945 a86.0,86.0 0 0,1 10.791469493833604,-42.45332614584628" fill="none" id="id34" stroke="none" /><text fill="#e1ed5e" style="font-size:6.75px; font-family:Arial;" text-anchor="middle"><textPath startOffset="22.145653131862435" xlink:href="#id34">October</textPath></text><line stroke="#e1ed5e" stroke-width="0.3" x1="26.387840678322718" x2="22.05771365940052" y1="57.49999999999999" y2="54.99999999999999" /><path d="M 25.521815274538284 56.99999999999999 a86.0,86.0 0 0,1 29.574782752854787,-30.34633250058573" fill="none" id="id35" stroke="none" /><text fill="#e1ed5e" style="font-size:6.75px; font-family:Arial;" text-anchor="middle"><textPath startOffset="21.40746469413373" xlink:href="#id35">November</textPath></text><line stroke="#e1ed5e" stroke-width="0.3" x1="56.869717070023135" x2="54.33264160355391" y1="26.7553504044142" y2="22.446841604673864" /><path d="M 56.362301976729285 25.89364864446614 a86.0,86.0 0 0,1 42.16139366436587,-11.88097634709845" fill="none" id="id36" stroke="none" /><text fill="#e1ed5e" style="font-size:6.75px; font-family:Arial;" text-anchor="middle"><textPath startOffset="22.145653131862474" xlink:href="#id36">December</textPath></text></svg>