<?xml version="1.0" encoding="utf-8" ?>
<svg baseProfile="full" height="200mm" version="1.1" viewBox="0,0,200,200" width="200mm" xmlns="http://www.w3.org/2000/svg" xmlns:ev="http://www.w3.org/2001/xml-events" xmlns:xlink="http://www.w3.org/1999/xlink"><defs /><rect fill="#1a1a1a" height="200" width="200" x="0" y="0" /><text alignment-baseline="middle" fill="#e1ed5e" style="dominant-baseline: central; font-size:9.0px; font-family:Arial;" text-anchor="middle" x="100.0" y="100.0">2023</text><line stroke="#e1ed5e" stroke-width="0.3" x1="100.0" x2="100.0" y1="15.0" y2="10.0" /><path d="M 100.0 14.0 a86.0,86.0 0 0,1 42.46469731375804,11.215312516191453" fill="none" id="id13" stroke="none" /><text fill="#e1ed5e" style="font-size:6.75px; font-family:Arial;" text-anchor="middle"><textPath startOffset="22.20632615414155" xlink:href="#id13">January</textPath></text><path d="M 100.0 79.0 l 0.0 -47.03614020032727 a68.03614020032727,68.03614020032727 0 0,0 1.1711303127365351,0.01008028834075857 l -0.8096498334640067 47.029171288595066" fill="#30ff39" stroke="none" /><path d="M 100.36148047927253 79.00311137660856 l 0.6774865041291287 -39.352356452768525 a60.358187792999686,60.358187792999686 0 0,0 1.038659115061731,0.02682550059916938 l -1.3547722543857277 39.334864160026996" fill="#9aff23" stroke="none" /><path d="M 101.80526077348638 79.07773832637324 l 1.7324980479275292 -20.078970329469072 a41.153575339819284,41.153575339819284 0 0,0 0.7052446521523583,0.06697147754723398 l -2.077867827170132 20.046173307406658" fill="#ff0000" stroke="none" /><path d="M 102.52436894288641 79.15227682838746 l 7.57310682865922 -62.54316951483763 a84.0,84.0 0 0,0 1.4339410859686157,0.1861667073434532 l -8.648562643135682 62.40354448433004" fill="#4dd2ff" stroke="none" /><path d="M 103.2404852339499 79.25152402106235 l 6.056184423087532 -38.77709292113706 a60.247169390682764,60.247169390682764 0 0,0 1.0232574159266896,0.1688462412357684 l -6.722771045153097 38.66710041696167" fill="#9cff22" stroke="none" /><path d="M 104.66035177308747 79.52364482259891 l 9.682380128937218 -42.5418217628199 a64.62974998622815,64.62974998622815 0 0,0 1.0826292934613921,0.25622337541272056 l -10.413233109361135 42.36885247526631" fill="#59ff2a" stroke="none" /><path d="M 105.01212808612495 79.60689891045804 l 11.224178611225799 -45.66838778511137 a68.02747950281844,68.02747950281844 0 0,0 1.134734352142807,0.2892690522754972 l -12.008621852053631 45.468415736667005" fill="#30ff39" stroke="none" /><path d="M 106.0581310904928 79.89281104454417 l 11.325545914227702 -37.589957747603506 a60.259048813259554,60.259048813259554 0 0,0 0.9905859560417158,0.30777987846751564 l -11.970917242980136 37.38943773425347" fill="#9cff22" stroke="none" /><path d="M 106.40334571778207 80.00007090966166 l 13.291761266581892 -41.514904010121256 a64.59080376108462,64.59080376108462 0 0,0 1.0559586883975913,0.348132977372366 l -14.004402777221902 41.27995730848965" fill="#59ff2a" stroke="none" /><path d="M 106.74666289553966 80.11325718540242 l 12.770666073084884 -37.643343931478825 a60.75061325682718,60.75061325682718 0 0,0 0.9873941699403511,0.34448243789943633 l -13.416742247088509 37.41794064040718" fill="#94ff23" stroke="none" /><path d="M 107.08798089147638 80.2323363322302 l 8.460569674259077 -23.59567531560456 a46.06665380166293,46.06665380166293 0 0,0 0.7441249124780952,0.27406748519414836 l -8.865476912509747 23.446544562604085" fill="#ff6509" stroke="none" /><path d="M 107.76421540070413 80.48803036053334 l 14.599808622200461 -36.69025237921195 a60.48834044949404,60.48834044949404 0 0,0 0.9641153928702316,0.3932868762476129 l -15.22920788465908 36.43350461678076" fill="#98ff23" stroke="none" /><path d="M 108.43124777332544 80.76684994638697 l 18.826101264914183 -42.94562801228124 a67.89082057509805,67.89082057509805 0 0,0 1.0662669817919412,0.47840291379354705 l -19.562550365172903 42.61520476797116" fill="#30ff36" stroke="none" /><path d="M 108.76106565485865 80.91482961587045 l 11.229554355410025 -24.46254447277079 a47.91689010832041,47.91689010832041 0 0,0 0.7466404995335811,0.35055772588708944 l -11.648973066243204 24.2656217642437" fill="#ff890c" stroke="none" /><path d="M 109.08828744355905 81.06846463323043 l 21.569290098429857 -44.93033268043598 a70.839432883259,70.839432883259 0 0,0 1.0947348285382663,0.5371816259825665 l -22.339496193978555 44.552395894318586" fill="#35ff69" stroke="none" /><line stroke="#e1ed5e" stroke-width="0.3" x1="143.23703022742887" x2="145.7803849466894" y1="26.81831364943548" y2="22.513508569990506" /><path d="M 143.74570117128098 25.957352633546492 a86.0,86.0 0 0,1 28.547481713284135,27.462654790039103" fill="none" id="id14" stroke="none" /><text fill="#e1ed5e" style="font-size:6.75px; font-family:Arial;" text-anchor="middle"><textPath startOffset="19.985693538727396" xlink:href="#id14">February</textPath></text><line stroke="#e1ed5e" stroke-width="0.3" x1="172.23445277983987" x2="176.4835382374775" y1="55.19839476539836" y2="52.563006222186495" /><path d="M 173.08426987136738 54.67131705675599 a86.0,86.0 0 0,1 12.851231095245387,41.99856678651699" fill="none" id="id15" stroke="none" /><text fill="#e1ed5e" style="font-size:6.75px; font-family:Arial;" text-anchor="middle"><textPath startOffset="22.20632615414155" xlink:href="#id15">March</textPath></text><line stroke="#e1ed5e" stroke-width="0.3" x1="184.98032266829074" x2="189.97916517819016" y1="98.17113171792111" y2="98.06355123074" /><path d="M 185.9800911702706 98.14961562048488 a86.0,86.0 0 0,1 -9.607161424134198,41.387399972396054" fill="none" id="id16" stroke="none" /><text fill="#e1ed5e" style="font-size:6.75px; font-family:Arial;" text-anchor="middle"><textPath startOffset="21.466115282336823" xlink:href="#id16">April</textPath></text><line stroke="#e1ed5e" stroke-width="0.3" x1="174.80103733775053" x2="179.2010983576182" y1="140.37084112569926" y2="142.7455964860345" /><path d="M 175.68104954172406 140.8457921977663 a86.0,86.0 0 0,1 -30.038265399797805,32.042727171017184" fill="none" id="id17" stroke="none" /><text fill="#e1ed5e" style="font-size:6.75px; font-family:Arial;" text-anchor="middle"><textPath startOffset="22.206326154141568" xlink:href="#id17">May</textPath></text><line stroke="#e1ed5e" stroke-width="0.3" x1="143.8653032363475" x2="146.44561519142675" y1="172.8068346515853" y2="177.08958963109032" /><path d="M 144.38136562736335 173.6633856474863 a86.0,86.0 0 0,1 -40.68145358897372,12.25698825130547" fill="none" id="id18" stroke="none" /><text fill="#e1ed5e" style="font-size:6.75px; font-family:Arial;" text-anchor="middle"><textPath startOffset="21.466115282336833" xlink:href="#id18">June</textPath></text><line stroke="#e1ed5e" stroke-width="0.3" x1="102.19456741930631" x2="102.32365962044197" y1="184.97166512339345" y2="189.96999836594603" /><path d="M 102.22038585953345 185.97133177190398 a86.0,86.0 0 0,1 -42.740103519485714,-10.115201625700543" fill="none" id="id19" stroke="none" /><text fill="#e1ed5e" style="font-size:6.75px; font-family:Arial;" text-anchor="middle"><textPath startOffset="22.20632615414155" xlink:href="#id19">July</textPath></text><line stroke="#e1ed5e" stroke-width="0.3" x1="58.666819895761336" x2="56.23545636021788" y1="174.27360380694188" y2="178.64263932499728" /><path d="M 58.180547188652646 175.14741091055294 a86.0,86.0 0 0,1 -31.652253787137756,-30.449443065178592" fill="none" id="id20" stroke="none" /><text fill="#e1ed5e" style="font-size:6.75px; font-family:Arial;" text-anchor="middle"><textPath startOffset="22.20632615414155" xlink:href="#id20">August</textPath></text><line stroke="#e1ed5e" stroke-width="0.3" x1="26.63291911575756" x2="22.317208475507996" y1="142.92168965132927" y2="145.44649492493687" /><path d="M 25.769776987707644 143.4266507060508 a86.0,86.0 0 0,1 -11.730757126820373,-40.83630448921669" fill="none" id="id21" stroke="none" /><text fill="#e1ed5e" style="font-size:6.75px; font-family:Arial;" text-anchor="middle"><textPath startOffset="21.46611528233685" xlink:href="#id21">September</textPath></text><line stroke="#e1ed5e" stroke-width="0.3" x1="15.007084014347285" x2="10.007500721073583" y1="101.09737516637583" y2="101.16192664675087" /><path d="M 14.007167355692545 101.11028546245083 a86.0,86.0 0 0,1 10.666146001902534,-42.60595125391555" fill="none" id="id22" stroke="none" /><text fill="#e1ed5e" style="font-size:6.75px; font-family:Arial;" text-anchor="middle"><textPath startOffset="22.20632615414155" xlink:href="#id22">October</textPath></text><line stroke="#e1ed5e" stroke-width="0.3" x1="26.266209847984243" x2="21.928928074336255" y1="57.711370442889674" y2="55.22380399835377" /><path d="M 25.398753493254645 57.213857153982495 a86.0,86.0 0 0,1 29.58750427330803,-30.492523968695096" fill="none" id="id23" stroke="none" /><text fill="#e1ed5e" style="font-size:6.75px; font-family:Arial;" text-anchor="middle"><textPath startOffset="21.46611528233685" xlink:href="#id23">November</textPath></text><line stroke="#e1ed5e" stroke-width="0.3" x1="56.762969772571076" x2="54.21961505331055" y1="26.818313649435495" y2="22.513508569990535" /><path d="M 56.25429882871897 25.957352633546506 a86.0,86.0 0 0,1 42.265352541879196,-11.944610805530505" fill="none" id="id24" stroke="none" /><text fill="#e1ed5e" style="font-size:6.75px; font-family:Arial;" text-anchor="middle"><textPath startOffset="22.20632615414155" xlink:href="#id24">December</textPath></text></svg>