<?xml version="1.0" encoding="utf-8" ?>
<svg baseProfile="full" height="200mm" version="1.1" viewBox="0,0,200,200" width="200mm" xmlns="http://www.w3.org/2000/svg" xmlns:ev="http://www.w3.org/2001/xml-events" xmlns:xlink="http://www.w3.org/1999/xlink"><defs /><rect fill="#1a1a1a" height="200" width="200" x="0" y="0" /><text alignment-baseline="middle" fill="#e1ed5e" style="dominant-baseline: central; font-size:9.0px; font-family:Arial;" text-anchor="middle" x="100.0" y="100.0">2024</text><line stroke="#e1ed5e" stroke-width="0.3" x1="100.0" x2="100.0" y1="15.0" y2="10.0" /><path d="M 100.0 14.0 a86.0,86.0 0 0,1 42.35913384403234,11.155469271406648" fill="none" id="id25" stroke="none" /><text fill="#e1ed5e" style="font-size:6.75px; font-family:Arial;" text-anchor="middle"><textPath startOffset="22.145653131862478" xlink:href="#id25">January</textPath></text><path d="M 100.36049292484886 79.00309439819443 l 0.44441689714112376 -25.885056249111994 a46.88887103367307,46.88887103367307 0 0,0 0.8046726113709453,0.020725512098658874 l -0.8887028225828103 25.873613019663292" fill="#fff417" stroke="none" /><path d="M 100.72087961077811 79.0123766808444 l 0.87088257036411 -25.354795819916536 a46.36974788051748,46.36974788051748 0 0,0 0.7952946987617318,0.034153376307303605 l -1.306003029726678 25.336109875183404" fill="#ffed16" stroke="none" /><path d="M 101.44090949804482 79.04949213459386 l 1.9056767705503106 -27.70812200524082 a48.77357789358666,48.77357789358666 0 0,0 0.8347969586047763,0.06461856422096517 l -2.3810427239303205 27.671325674024803" fill="#efff19" stroke="none" /><path d="M 101.80034050326958 79.07731436759882 l 5.401021509808744 -62.76805689720356 a84.0,84.0 0 0,0 1.4356017464599482,0.1359529779792652 l -6.477722819653705 62.666092163719114" fill="#4dd2ff" stroke="none" /><path d="M 102.15924093988457 79.11130261209362 l 2.1517074191601058 -20.815817408756278 a41.92673168969176,41.92673168969176 0 0,0 0.715278225125368,0.08014841705290289 l -2.5087215458862704 20.775813231196402" fill="#ffaa0f" stroke="none" /><path d="M 102.87502721639298 79.19773525538626 l 4.20473502042533 -30.423368021390164 a51.71255636310558,51.71255636310558 0 0,0 0.8783128847413083,0.12908174769166872 l -4.726373010774321 30.346705200399615" fill="#c6ff1e" stroke="none" /><path d="M 103.23170211078529 79.25015418208739 l 4.001715278133822 -25.69388272246564 a47.00364079360942,47.00364079360942 0 0,0 0.7962024985094903,0.13101481813915228 l -4.442195279696382 25.62140190583082" fill="#fff617" stroke="none" /><path d="M 103.58742460773223 79.30868818359171 l 3.3568838644347117 -19.36161407288668 a40.650464849125214,40.650464849125214 0 0,0 0.6865384736661201,0.1251101797017992 l -3.6887570716518856 19.301135719253516" fill="#ff960d" stroke="none" /><path d="M 103.94208987418118 79.37332000966035 l 1.9732765732716562 -10.32501685866887 a31.511888201765615,31.511888201765615 0 0,0 0.5304553917561771,0.10610593462092273 l -2.15022845055879 10.289621527385089" fill="#ff0000" stroke="none" /><path d="M 104.29559338865022 79.4440306129975 l 8.009479644312954 -38.32825956230734 a60.156190382215016,60.156190382215016 0 0,0 1.0090129107443193,0.21990966761300276 l -8.666254971676407 38.185118436560614" fill="#5aff2a" stroke="none" /><path d="M 104.64783097203109 79.52079915486377 l 9.966627571306212 -43.91480004537637 a66.03158145313697,66.03158145313697 0 0,0 1.1032551795053107,0.26036521835514204 l -10.719014904551408 43.737238683375" fill="#33ff4f" stroke="none" /><path d="M 105.3480935250658 79.69241777938227 l 6.905146278012774 -26.2199651387756 a48.11397457030897,48.11397457030897 0 0,0 0.7969016776432706,0.21719909590602882 l -7.354229356590737 26.09756554872543" fill="#f8ff18" stroke="none" /><line stroke="#e1ed5e" stroke-width="0.3" x1="143.13028292997686" x2="145.6673583964461" y1="26.7553504044142" y2="22.446841604673864" /><path d="M 143.63769802327073 25.89364864446614 a86.0,86.0 0 0,1 29.32050498858742,28.57503671076993" fill="none" id="id26" stroke="none" /><text fill="#e1ed5e" style="font-size:6.75px; font-family:Arial;" text-anchor="middle"><textPath startOffset="20.669276256404974" xlink:href="#id26">February</textPath></text><line stroke="#e1ed5e" stroke-width="0.3" x1="172.87174338648825" x2="177.1583165268699" y1="56.24261187166439" y2="53.66864786411523" /><path d="M 173.72905801456457 55.72781907015455 a86.0,86.0 0 0,1 12.242430191666344,42.057860355516425" fill="none" id="id27" stroke="none" /><text fill="#e1ed5e" style="font-size:6.75px; font-family:Arial;" text-anchor="middle"><textPath startOffset="22.145653131862474" xlink:href="#id27">March</textPath></text><line stroke="#e1ed5e" stroke-width="0.3" x1="184.99686870605535" x2="189.99668451229388" y1="99.2704041080226" y2="99.22748670261217" /><path d="M 185.99683186730306 99.26182062694052 a86.0,86.0 0 0,1 -10.086455211305974,41.156179273409016" fill="none" id="id28" stroke="none" /><text fill="#e1ed5e" style="font-size:6.75px; font-family:Arial;" text-anchor="middle"><textPath startOffset="21.40746469413373" xlink:href="#id28">April</textPath></text><line stroke="#e1ed5e" stroke-width="0.3" x1="174.33088141563837" x2="178.70328620479359" y1="141.23008692659167" y2="143.65538615756765" /><path d="M 175.20536237346943 141.71514677278685 a86.0,86.0 0 0,1 -30.301960400862466,31.631185727798858" fill="none" id="id29" stroke="none" /><text fill="#e1ed5e" style="font-size:6.75px; font-family:Arial;" text-anchor="middle"><textPath startOffset="22.145653131862474" xlink:href="#id29">May</textPath></text><line stroke="#e1ed5e" stroke-width="0.3" x1="143.1302829299769" x2="145.66735839644613" y1="173.24464959558577" y2="177.55315839532614" /><path d="M 143.63769802327073 174.10635135553383 a86.0,86.0 0 0,1 -40.68552437913181,11.842963189579606" fill="none" id="id30" stroke="none" /><text fill="#e1ed5e" style="font-size:6.75px; font-family:Arial;" text-anchor="middle"><textPath startOffset="21.407464694133747" xlink:href="#id30">June</textPath></text><line stroke="#e1ed5e" stroke-width="0.3" x1="101.45913802915013" x2="101.54496967792366" y1="184.9874750549273" y2="189.98673829345242" /><path d="M 101.47630435890484 185.9873277026323 a86.0,86.0 0 0,1 -42.54439059252881,-10.42667462771756" fill="none" id="id31" stroke="none" /><text fill="#e1ed5e" style="font-size:6.75px; font-family:Arial;" text-anchor="middle"><textPath startOffset="22.145653131862474" xlink:href="#id31">July</textPath></text><line stroke="#e1ed5e" stroke-width="0.3" x1="58.13341422392154" x2="55.67067388415222" y1="173.97424548756322" y2="178.32567169271397" /><path d="M 57.64086615596768 174.84453072859336 a86.0,86.0 0 0,1 -31.369924170532247,-30.572349798747897" fill="none" id="id32" stroke="none" /><text fill="#e1ed5e" style="font-size:6.75px; font-family:Arial;" text-anchor="middle"><textPath startOffset="22.145653131862474" xlink:href="#id32">August</textPath></text><line stroke="#e1ed5e" stroke-width="0.3" x1="26.387840678322732" x2="22.057713659400548" y1="142.50000000000003" y2="145.00000000000006" /><path d="M 25.521815274538298 143.00000000000003 a86.0,86.0 0 0,1 -11.493303480769221,-40.785679425670985" fill="none" id="id33" stroke="none" /><text fill="#e1ed5e" style="font-size:6.75px; font-family:Arial;" text-anchor="middle"><textPath startOffset="21.40746469413373" xlink:href="#id33">September</textPath></text><line stroke="#e1ed5e" stroke-width="0.3" x1="15.003131293944662" x2="10.003315487706104" y1="100.72959589197737" y2="100.7725132973878" /><path d="M 14.003168132696942 100.73817937305945 a86.0,86.0 0 0,1 10.791469493833604,-42.45332614584628" fill="none" id="id34" stroke="none" /><text fill="#e1ed5e" style="font-size:6.75px; font-family:Arial;" text-anchor="middle"><textPath startOffset="22.145653131862435" xlink:href="#id34">October</textPath></text><line stroke="#e1ed5e" stroke-width="0.3" x1="26.387840678322718" x2="22.05771365940052" y1="57.49999999999999" y2="54.99999999999999" /><path d="M 25.521815274538284 56.99999999999999 a86.0,86.0 0 0,1 29.574782752854787,-30.34633250058573" fill="none" id="id35" stroke="none" /><text fill="#e1ed5e" style="font-size:6.75px; font-family:Arial;" text-anchor="middle"><textPath startOffset="21.40746469413373" xlink:href="#id35">November</textPath></text><line stroke="#e1ed5e" stroke-width="0.3" x1="56.869717070023135" x2="54.33264160355391" y1="26.7553504044142" y2="22.446841604673864" /><path d="M 56.362301976729285 25.89364864446614 a86.0,86.0 0 0,1 42.16139366436587,-11.88097634709845" fill="none" id="id36" stroke="none" /><text fill="#e1ed5e" style="font-size:6.75px; font-family:Arial;" text-anchor="middle"><textPath startOffset="22.145653131862474" xlink:href="#id36">December</textPath></text></svg>