<?xml version="1.0" encoding="utf-8" ?>
<svg baseProfile="full" height="200mm" version="1.1" viewBox="0,0,200,200" width="200mm" xmlns="http://www.w3.org/2000/svg" xmlns:ev="http://www.w3.org/2001/xml-events" xmlns:xlink="http://www.w3.org/1999/xlink"><defs /><rect fill="#1a1a1a" height="200" width="200" x="0" y="0" /><text alignment-baseline="middle" fill="#e1ed5e" style="dominant-baseline: central; font-size:9.0px; font-family:Arial;" text-anchor="middle" x="100.0" y="100.0">2024</text><line stroke="#e1ed5e" stroke-width="0.3" x1="100.0" x2="100.0" y1="15.0" y2="10.0" /><path d="M 100.0 14.0 a86.0,86.0 0 0,1 42.35913384403234,11.155469271406648" fill="none" id="id25" stroke="none" /><text fill="#e1ed5e" style="font-size:6.75px; font-family:Arial;" text-anchor="middle"><textPath startOffset="22.145653131862478" xlink:href="#id25">January</textPath></text><path d="M 100.36049292484886 79.00309439819443 l 0.4412771793832776 -25.702183430164304 a46.70597126402457,46.70597126402457 0 0,0 0.8015338189023334,0.020644667938730824 l -0.8824243123563523 25.690821044875527" fill="#fff216" stroke="none" /><path d="M 100.72087961077811 79.0123766808444 l 0.8647299567061675 -25.175669186355897 a46.19051561359662,46.19051561359662 0 0,0 0.7922206585039219,0.0340213637918521 l -1.2967763758109256 25.157115254138215" fill="#ffeb16" stroke="none" /><path d="M 101.44090949804482 79.04949213459386 l 1.8922135398862614 -27.51236958615852 a48.577363041558364,48.577363041558364 0 0,0 0.831438591866464,0.0643586053956241 l -2.364221126527959 27.475833213767842" fill="#f1ff19" stroke="none" /><path d="M 101.80034050326958 79.07731436759882 l 5.3628643576978705 -62.3246129504648 a83.55491742096947,83.55491742096947 0 0,0 1.427995063986435,0.13523261724038554 l -6.431958985069318 62.22336857771923" fill="#4cd7ff" stroke="none" /><path d="M 102.15924093988457 79.11130261209362 l 2.1365060304705996 -20.668757762773453 a41.7788884561818,41.7788884561818 0 0,0 0.7127559907083265,0.07986579542559584 l -2.4909979227797225 20.629036206840887" fill="#ffa90f" stroke="none" /><path d="M 102.87502721639298 79.19773525538626 l 4.175029396504205 -30.20843292453691 a51.49557820763397,51.49557820763397 0 0,0 0.8746276151847238,0.12854013997607777 l -4.692982117296611 30.13231171126195" fill="#c9ff1d" stroke="none" /><path d="M 103.23170211078529 79.25015418208739 l 3.97344394866497 -25.512360506792266 a46.81993019823477,46.81993019823477 0 0,0 0.7930905941427152,0.1305027554598179 l -4.410812045860756 25.440391752836778" fill="#fff417" stroke="none" /><path d="M 103.58742460773223 79.30868818359171 l 3.3331681417698142 -19.2248280867636 a40.51163818921732,40.51163818921732 0 0,0 0.68419385488867,0.12468291205718698 l -3.662696730209538 19.164777000775047" fill="#ff950d" stroke="none" /><path d="M 103.94208987418118 79.37332000966035 l 1.9593357633292392 -10.252072650224587 a31.437623784125577,31.437623784125577 0 0,0 0.5292052616306652,0.10585587358388422 l -2.135037510490861 10.216927379977843" fill="#ff0000" stroke="none" /><path d="M 104.29559338865022 79.4440306129975 l 7.952894249760839 -38.05747796523206 a59.879559617130475,59.879559617130475 0 0,0 1.0043729225451679,0.21889840378105543 l -8.605029588925142 37.915348103317285" fill="#5dff2a" stroke="none" /><path d="M 104.64783097203109 79.52079915486377 l 9.896215312517743 -43.604550641220726 a65.71344220851816,65.71344220851816 0 0,0 1.0979397113353002,0.25911078234028906 l -10.643287177592928 43.42824371523421" fill="#32ff4b" stroke="none" /><path d="M 105.3480935250658 79.69241777938227 l 6.85636278096514 -26.034726254552485 a47.9224196857134,47.9224196857134 0 0,0 0.7937289942335493,0.21633436693441283 l -7.302273176133383 25.91319139347393" fill="#faff18" stroke="none" /><path d="M 105.69591212413111 79.78721728523813 l 7.002044150961509 -24.84778449845629 a46.81551891350896,46.81551891350896 0 0,0 0.7716534827176549,0.22461708262075503 l -7.427557646060768 24.723923721533016" fill="#fff417" stroke="none" /><path d="M 106.38641147887787 79.99465700312896 l 8.979925688470212 -28.12948931937981 a50.52807536463476,50.52807536463476 0 0,0 0.8240341391813649,0.2708763889466569 l -9.461482565299319 27.97119200903113" fill="#d6ff1c" stroke="none" /><path d="M 107.06938296918511 80.22567764915836 l 21.208148907555344 -59.32296705252493 a84.0,84.0 0 0,0 1.3536433933835013,0.49707660396511244 l -22.22338145259297 58.9501595995511" fill="#4dd2ff" stroke="none" /><path d="M 107.74402155503746 80.48000691201159 l 10.039514356415207 -25.306134474342524 a48.224846933383745,48.224846933383745 0 0,0 0.7668796425322574,0.31188327443173736 l -10.472448460137905 25.130063943331493" fill="#f6ff19" stroke="none" /><path d="M 108.07796709384702 80.6158196554323 l 9.905616498402159 -23.769873583095936 a46.751274305746094,46.751274305746094 0 0,0 0.7381467976605386,0.3150709749995302 l -10.312198371233128 23.596327958437005" fill="#fff316" stroke="none" /><line stroke="#e1ed5e" stroke-width="0.3" x1="143.13028292997686" x2="145.6673583964461" y1="26.7553504044142" y2="22.446841604673864" /><path d="M 143.63769802327073 25.89364864446614 a86.0,86.0 0 0,1 29.32050498858742,28.57503671076993" fill="none" id="id26" stroke="none" /><text fill="#e1ed5e" style="font-size:6.75px; font-family:Arial;" text-anchor="middle"><textPath startOffset="20.669276256404974" xlink:href="#id26">February</textPath></text><line stroke="#e1ed5e" stroke-width="0.3" x1="172.87174338648825" x2="177.1583165268699" y1="56.24261187166439" y2="53.66864786411523" /><path d="M 173.72905801456457 55.72781907015455 a86.0,86.0 0 0,1 12.242430191666344,42.057860355516425" fill="none" id="id27" stroke="none" /><text fill="#e1ed5e" style="font-size:6.75px; font-family:Arial;" text-anchor="middle"><textPath startOffset="22.145653131862474" xlink:href="#id27">March</textPath></text><line stroke="#e1ed5e" stroke-width="0.3" x1="184.99686870605535" x2="189.99668451229388" y1="99.2704041080226" y2="99.22748670261217" /><path d="M 185.99683186730306 99.26182062694052 a86.0,86.0 0 0,1 -10.086455211305974,41.156179273409016" fill="none" id="id28" stroke="none" /><text fill="#e1ed5e" style="font-size:6.75px; font-family:Arial;" text-anchor="middle"><textPath startOffset="21.40746469413373" xlink:href="#id28">April</textPath></text><line stroke="#e1ed5e" stroke-width="0.3" x1="174.33088141563837" x2="178.70328620479359" y1="141.23008692659167" y2="143.65538615756765" /><path d="M 175.20536237346943 141.71514677278685 a86.0,86.0 0 0,1 -30.301960400862466,31.631185727798858" fill="none" id="id29" stroke="none" /><text fill="#e1ed5e" style="font-size:6.75px; font-family:Arial;" text-anchor="middle"><textPath startOffset="22.145653131862474" xlink:href="#id29">May</textPath></text><line stroke="#e1ed5e" stroke-width="0.3" x1="143.1302829299769" x2="145.66735839644613" y1="173.24464959558577" y2="177.55315839532614" /><path d="M 143.63769802327073 174.10635135553383 a86.0,86.0 0 0,1 -40.68552437913181,11.842963189579606" fill="none" id="id30" stroke="none" /><text fill="#e1ed5e" style="font-size:6.75px; font-family:Arial;" text-anchor="middle"><textPath startOffset="21.407464694133747" xlink:href="#id30">June</textPath></text><line stroke="#e1ed5e" stroke-width="0.3" x1="101.45913802915013" x2="101.54496967792366" y1="184.9874750549273" y2="189.98673829345242" /><path d="M 101.47630435890484 185.9873277026323 a86.0,86.0 0 0,1 -42.54439059252881,-10.42667462771756" fill="none" id="id31" stroke="none" /><text fill="#e1ed5e" style="font-size:6.75px; font-family:Arial;" text-anchor="middle"><textPath startOffset="22.145653131862474" xlink:href="#id31">July</textPath></text><line stroke="#e1ed5e" stroke-width="0.3" x1="58.13341422392154" x2="55.67067388415222" y1="173.97424548756322" y2="178.32567169271397" /><path d="M 57.64086615596768 174.84453072859336 a86.0,86.0 0 0,1 -31.369924170532247,-30.572349798747897" fill="none" id="id32" stroke="none" /><text fill="#e1ed5e" style="font-size:6.75px; font-family:Arial;" text-anchor="middle"><textPath startOffset="22.145653131862474" xlink:href="#id32">August</textPath></text><line stroke="#e1ed5e" stroke-width="0.3" x1="26.387840678322732" x2="22.057713659400548" y1="142.50000000000003" y2="145.00000000000006" /><path d="M 25.521815274538298 143.00000000000003 a86.0,86.0 0 0,1 -11.493303480769221,-40.785679425670985" fill="none" id="id33" stroke="none" /><text fill="#e1ed5e" style="font-size:6.75px; font-family:Arial;" text-anchor="middle"><textPath startOffset="21.40746469413373" xlink:href="#id33">September</textPath></text><line stroke="#e1ed5e" stroke-width="0.3" x1="15.003131293944662" x2="10.003315487706104" y1="100.72959589197737" y2="100.7725132973878" /><path d="M 14.003168132696942 100.73817937305945 a86.0,86.0 0 0,1 10.791469493833604,-42.45332614584628" fill="none" id="id34" stroke="none" /><text fill="#e1ed5e" style="font-size:6.75px; font-family:Arial;" text-anchor="middle"><textPath startOffset="22.145653131862435" xlink:href="#id34">October</textPath></text><line stroke="#e1ed5e" stroke-width="0.3" x1="26.387840678322718" x2="22.05771365940052" y1="57.49999999999999" y2="54.99999999999999" /><path d="M 25.521815274538284 56.99999999999999 a86.0,86.0 0 0,1 29.574782752854787,-30.34633250058573" fill="none" id="id35" stroke="none" /><text fill="#e1ed5e" style="font-size:6.75px; font-family:Arial;" text-anchor="middle"><textPath startOffset="21.40746469413373" xlink:href="#id35">November</textPath></text><line stroke="#e1ed5e" stroke-width="0.3" x1="56.869717070023135" x2="54.33264160355391" y1="26.7553504044142" y2="22.446841604673864" /><path d="M 56.362301976729285 25.89364864446614 a86.0,86.0 0 0,1 42.16139366436587,-11.88097634709845" fill="none" id="id36" stroke="none" /><text fill="#e1ed5e" style="font-size:6.75px; font-family:Arial;" text-anchor="middle"><textPath startOffset="22.145653131862474" xlink:href="#id36">December</textPath></text></svg>