<?xml version="1.0" encoding="utf-8" ?>
<svg baseProfile="full" height="200mm" version="1.1" viewBox="0,0,200,200" width="200mm" xmlns="http://www.w3.org/2000/svg" xmlns:ev="http://www.w3.org/2001/xml-events" xmlns:xlink="http://www.w3.org/1999/xlink"><defs /><rect fill="#1a1a1a" height="200" width="200" x="0" y="0" /><text alignment-baseline="middle" fill="#e1ed5e" style="dominant-baseline: central; font-size:9.0px; font-family:Arial;" text-anchor="middle" x="100.0" y="100.0">2023</text><line stroke="#e1ed5e" stroke-width="0.3" x1="100.0" x2="100.0" y1="15.0" y2="10.0" /><path d="M 100.0 14.0 a86.0,86.0 0 0,1 42.46469731375804,11.215312516191453" fill="none" id="id13" stroke="none" /><text fill="#e1ed5e" style="font-size:6.75px; font-family:Arial;" text-anchor="middle"><textPath startOffset="22.20632615414155" xlink:href="#id13">January</textPath></text><path d="M 100.0 79.0 l 0.0 -23.727786599688358 a44.72778659968836,44.72778659968836 0 0,0 0.7699153208026057,0.0066269042370896755 l -0.4084348415300773 23.724271072059828" fill="#ddff1b" stroke="none" /><path d="M 100.36148047927253 79.00311137660856 l 0.3417639101695042 -19.851635617406888 a40.854577287280435,40.854577287280435 0 0,0 0.7030360029521838,0.018157345798010528 l -0.6834265483165558 19.84281147946652" fill="#fff216" stroke="none" /><path d="M 101.80526077348638 79.07773832637324 l 0.8739735826647406 -10.129009759091613 a31.166644900013424,31.166644900013424 0 0,0 0.5340996367817057,0.050719196130797936 l -1.0481983465366904 10.112465018445636" fill="#ff720a" stroke="none" /><path d="M 102.52436894288641 79.15227682838746 l 3.820319055980243 -31.550441281869393 a52.78089336016491,52.78089336016491 0 0,0 0.901008232657959,0.11697672770842658 l -4.362842017146049 31.48000623099683" fill="#80ff25" stroke="none" /><path d="M 103.2404852339499 79.25152402106235 l 3.0550944653910586 -19.561438967362896 a40.798573096724084,40.798573096724084 0 0,0 0.692936164514748,0.11434040445110011 l -3.391359836044682 19.505952299972172" fill="#fff116" stroke="none" /><path d="M 104.66035177308747 79.52364482259891 l 4.8843601642910075 -21.46058890144955 a43.00940367687259,43.00940367687259 0 0,0 0.7204614024471773,0.17050993678491416 l -5.253045253700709 21.37333305252377" fill="#f1ff19" stroke="none" /><path d="M 105.01212808612495 79.60689891045804 l 5.662133706330332 -23.03781209729019 a44.72341763613355,44.72341763613355 0 0,0 0.7460102697888081,0.19017462838072097 l -6.057852864804165 22.9369344727406" fill="#ddff1b" stroke="none" /><path d="M 106.0581310904928 79.89281104454417 l 5.71326931659876 -18.962578390312565 a40.804565773900165,40.804565773900165 0 0,0 0.6707777602541871,0.20841391528980235 l -6.038832449563666 18.861424340140243" fill="#fff116" stroke="none" /><path d="M 106.40334571778207 80.00007090966166 l 6.705143609238248 -20.942551384176923 a42.989756917696916,42.989756917696916 0 0,0 0.7028153341651531,0.2317071657388024 l -7.064641765645819 20.824030494178885" fill="#f2ff19" stroke="none" /><path d="M 106.74666289553966 80.11325718540242 l 6.442272644555343 -18.989509511211732 a41.05253969708543,41.05253969708543 0 0,0 0.6672366941677191,0.2327857810591913 l -6.768191342786336 18.875802876980334" fill="#fff417" stroke="none" /><path d="M 107.08798089147638 80.2323363322302 l 4.268007342601156 -11.903041920100064 a33.64508970423527,33.64508970423527 0 0,0 0.5434766227925582,0.2001670267623916 l -4.4722662911662905 11.827811625531346" fill="#ff940d" stroke="none" /><path d="M 107.76421540070413 80.48803036053334 l 7.36499937938046 -18.508714257480502 a40.92023391738502,40.92023391738502 0 0,0 0.6522220167792921,0.2660577369638282 l -7.682505265748139 18.379195634333094" fill="#fff316" stroke="none" /><path d="M 108.43124777332544 80.76684994638697 l 9.496989153776246 -21.66429244672415 a44.65447886139394,44.65447886139394 0 0,0 0.7013259818588045,0.3146645248983627 l -9.86849725410183 21.497607591309258" fill="#deff1b" stroke="none" /><path d="M 108.76106565485865 80.91482961587045 l 5.6648455468485945 -12.340341542974922 a34.57845736698109,34.57845736698109 0 0,0 0.5388011747678165,0.252974376088479 l -5.876424932916009 12.241002184246442" fill="#ffa10e" stroke="none" /><path d="M 109.08828744355905 81.06846463323043 l 10.880814420200958 -22.665493834185217 a46.14193177133255,46.14193177133255 0 0,0 0.7130658407353169,0.3498983112378743 l -11.269351527946705 22.47484036281251" fill="#ccff1d" stroke="none" /><path d="M 109.41281617654863 81.2277094730956 l 19.23259416053045 -38.35619844218654 a63.90793209978853,63.90793209978853 0 0,0 0.979128900618899,0.5015478524698254 l -19.889983548738105 38.01945806440421" fill="#34ff58" stroke="none" /><path d="M 110.05341064243156 81.56283822128135 l 10.421986228254532 -19.11310031790684 a42.76989666269222,42.76989666269222 0 0,0 0.6433323842201348,0.3580137752973114 l -10.749442701546702 18.930871145049352" fill="#f4ff19" stroke="none" /><path d="M 110.36928655335952 81.73862282372117 l 7.9956699480404705 -14.081194877471944 a37.192923982262734,37.192923982262734 0 0,0 0.5540032452771636,0.320914438099711 l -8.236869925782962 13.941476281982183" fill="#ffc312" stroke="none" /><line stroke="#e1ed5e" stroke-width="0.3" x1="143.23703022742887" x2="145.7803849466894" y1="26.81831364943548" y2="22.513508569990506" /><path d="M 143.74570117128098 25.957352633546492 a86.0,86.0 0 0,1 28.547481713284135,27.462654790039103" fill="none" id="id14" stroke="none" /><text fill="#e1ed5e" style="font-size:6.75px; font-family:Arial;" text-anchor="middle"><textPath startOffset="19.985693538727396" xlink:href="#id14">February</textPath></text><path d="M 110.68208982089419 81.91981866633111 l 8.879547110971366 -15.029252198684365 a38.456367850948226,38.456367850948226 0 0,0 0.5670262039115276,0.34162694335719634 l -9.136935381100532 14.874178645868554" fill="#ffd313" stroke="none" /><path d="M 111.60114157652 82.49532879139004 l 14.676107072356045 -22.144409429835633 a47.566200100794475,47.566200100794475 0 0,0 0.6786004883389095,0.45819407893373904 l -15.055112255101495 21.888503438603223" fill="#bbff1f" stroke="none" /><path d="M 111.90073688211348 82.69761687909136 l 11.299287449977276 -16.42794075605692 a40.93868436887775,40.93868436887775 0 0,0 0.5771747441922971,0.40434779311468527 l -11.580393333753225 16.2310081201783" fill="#fff316" stroke="none" /><path d="M 112.19680574252982 82.90503203632743 l 11.658868710728484 -16.340998726214707 a41.07380031245091,41.07380031245091 0 0,0 0.5720107274535946,0.4155901199703176 l -11.938424754535868 16.137889371427715" fill="#fff517" stroke="none" /><path d="M 112.48926042617603 83.11751280151076 l 13.474436727337844 -18.21420947227258 a43.65651941095223,43.65651941095223 0 0,0 0.6002851377825843,0.4521223205618127 l -13.785968018878812 17.97957056220492" fill="#eaff1a" stroke="none" /><path d="M 112.77801427241765 83.33499621200491 l 13.536764999226813 -17.654561591488328 a43.246967245715695,43.246967245715695 0 0,0 0.5868560834816863,0.45805048171440726 l -13.83865363786793 17.418932720550696" fill="#efff19" stroke="none" /><path d="M 113.89432698308785 84.25364557470407 l 14.551682433144272 -16.491331271787864 a42.99353243003333,42.99353243003333 0 0,0 0.5507041822911638,0.49442765230297175 l -14.833397603031425 16.238404610715595" fill="#f2ff19" stroke="none" /><path d="M 114.16331599549186 84.49514656593476 l 28.01576845359044 -30.66939859662034 a62.539081505536096,62.539081505536096 0 0,0 0.7885645589227362,0.7328848166484143 l -28.539540896308022 30.182609193897285" fill="#32ff47" stroke="none" /><path d="M 114.68862486808459 84.99185889309783 l 16.361792659378587 -16.717704700007864 a44.39209074591581,44.39209074591581 0 0,0 0.5415078288012919,0.5391824220937979 l -16.647136288347202 16.433586427263947" fill="#e1ff1b" stroke="none" /><path d="M 115.4437574822437 85.77008943001954 l 15.87134234556315 -14.623888160803734 a42.581418229341686,42.581418229341686 0 0,0 0.49203104404466796,0.5433129680315104 l -16.120717030223854 14.348522405502674" fill="#f7ff19" stroke="none" /><path d="M 115.68641384162765 86.03803664274999 l 16.208545246363855 -14.426695425025159 a42.69899720931514,42.69899720931514 0 0,0 0.4839385120420836,0.5532253764946854 l -16.454475621983786 14.145554492327525" fill="#f5ff19" stroke="none" /><path d="M 115.9244219780498 86.31012108654704 l 19.03893356599065 -16.367356725346376 a46.107197324770176,46.107197324770176 0 0,0 0.5122057037011459,0.6062899951866707 l -19.317849883178912 16.0372077805306" fill="#ccff1d" stroke="none" /><path d="M 116.15771136456269 86.58626213691792 l 21.703067100573307 -18.017356935243786 a49.20723794532114,49.20723794532114 0 0,0 0.5354251462505158,0.6563679199212095 l -22.009990738900232 17.641104845714473" fill="#a8ff21" stroke="none" /><path d="M 116.82858285166822 87.43820079747576 l 5.249679535225574 -3.918655586175358 a27.550953886696924,27.550953886696924 0 0,0 0.2804128050714358,0.38248275098318973 l -5.316354952810635 3.8277103915206743" fill="#ff3f05" stroke="none" /><path d="M 117.2510076193507 88.02491185347247 l 16.398020862569464 -11.382972495913704 a40.96164199288203,40.96164199288203 0 0,0 0.39708515027557184,0.5826734602954118 l -16.591530478513768 11.099021012347885" fill="#fff316" stroke="none" /><path d="M 117.65298651832404 88.62581576622439 l 16.957004737127793 -10.925748780972183 a41.17205978773337,41.17205978773337 0 0,0 0.37872884555722297,0.5990580817425367 l -17.142561178930972 10.632243051515442" fill="#fff617" stroke="none" /><line stroke="#e1ed5e" stroke-width="0.3" x1="172.23445277983987" x2="176.4835382374775" y1="55.19839476539836" y2="52.563006222186495" /><path d="M 173.08426987136738 54.67131705675599 a86.0,86.0 0 0,1 12.851231095245387,41.99856678651699" fill="none" id="id15" stroke="none" /><text fill="#e1ed5e" style="font-size:6.75px; font-family:Arial;" text-anchor="middle"><textPath startOffset="22.20632615414155" xlink:href="#id15">March</textPath></text><path d="M 117.84615892207809 88.93136811851018 l 14.467682756480903 -8.973216887111409 a38.02446667726529,38.02446667726529 0 0,0 0.3401998365357175,0.5591990817406175 l -14.619998391302843 8.72285003216371" fill="#ffce13" stroke="none" /><path d="M 118.03404312379186 89.2402003453031 l 16.42588860510223 -9.800313181468498 a40.12736142080482,40.12736142080482 0 0,0 0.34880293411431146,0.5962172805336737 l -16.59215121368687 9.516116488580929" fill="#ffe915" stroke="none" /><path d="M 118.21658344932153 89.55222093294921 l 16.840924767210865 -9.65879588464741 a40.414146516294196,40.414146516294196 0 0,0 0.34090748757378836,0.6064363809140764 l -17.004689896077085 9.36747599379854" fill="#ffec16" stroke="none" /><path d="M 118.3937258080291 89.86733742301442 l 8.517482271005024 -4.692076785219755 a30.72435544369307,30.72435544369307 0 0,0 0.2511963326864367,0.46542865435674563 l -8.596986702909925 4.544767147530551" fill="#ff6c0a" stroke="none" /><path d="M 118.56541770881063 90.18545643968196 l 23.588749218708546 -12.47011030786362 a47.682067775819206,47.682067775819206 0 0,0 0.37734808913148304,0.7289164007175702 l -23.799906741000147 12.062221184885706" fill="#baff1f" stroke="none" /><path d="M 118.73160827565052 90.50648371742162 l 9.044288348424825 -4.583808151258344 a31.1395487521386,31.1395487521386 0 0,0 0.23820270038953625,0.4802021086595037 l -9.121851061767769 4.427446454099891" fill="#ff720a" stroke="none" /><path d="M 118.89224826269711 90.83032412892265 l 9.202421318881148 -4.466552606650184 a31.229107992301763,31.229107992301763 0 0,0 0.23056272894463392,0.48562390798413135 l -9.277942241667539 4.307486283025512" fill="#ff730a" stroke="none" /><path d="M 119.04729006885535 91.15688171328212 l 18.505041592806318 -8.591367649374735 a41.402160729643676,41.402160729643676 0 0,0 0.2945422326533271,0.6489847665991496 l -18.650186142422992 8.271560873933522" fill="#fff917" stroke="none" /><path d="M 119.196687751892 91.48605970444005 l 4.371588240264315 -1.9388470425432651 a25.782249637649212,25.782249637649212 0 0,0 0.1764356568612081,0.4072378218709521 l -4.404314606968204 1.8633100760857102" fill="#ff2603" stroke="none" /><path d="M 119.47837535516314 92.15188598940014 l 27.697786599754373 -11.159831511231117 a50.86150066364046,50.86150066364046 0 0,0 0.32020087859187824,0.8148763100369313 l -27.885781028227953 10.6814061962984" fill="#96ff23" stroke="none" /><path d="M 119.61058180528143 92.48833698450437 l 13.300699600629619 -5.0947174470550225 a35.24305991462213,35.24305991462213 0 0,0 0.21212195525573999,0.5683813796843561 l -13.386426144386984 4.865012930341333" fill="#ffa90f" stroke="none" /><path d="M 119.7369772167798 92.82701384747503 l 39.12155020519071 -14.21789845552285 a62.625044467829895,62.625044467829895 0 0,0 0.3594883892735988,1.0163220857035828 l -39.36049167527411 13.542378743392653" fill="#32ff48" stroke="none" /><path d="M 119.85752413597 93.16781622104841 l 18.12723836649632 -6.236861306411563 a40.17016457287704,40.17016457287704 0 0,0 0.21933427521711665,0.6557815655056869 l -18.23190993548521 5.923906637983562" fill="#ffe915" stroke="none" /><path d="M 120.08093135843002 93.85539295169968 l 20.83773785380294 -6.376183883192275 a42.79144418748085,42.79144418748085 0 0,0 0.2094622912641312,0.7062027168598513 l -20.944406042178773 6.016551779585893" fill="#f4ff19" stroke="none" /><path d="M 120.18372546131832 94.20196356495316 l 18.82993488643851 -5.409142566389189 a40.59145913736487,40.59145913736487 0 0,0 0.1871328688815144,0.673216495013128 l -18.92025452588639 5.084214767957109" fill="#ffef16" stroke="none" /><path d="M 120.28053869075195 94.5502522615342 l 18.941170209893503 -5.089835190735535 a40.61311681474943,40.61311681474943 0 0,0 0.17561047528376844,0.6766987972896625 l -19.025977017047573 4.763039967897021" fill="#ffef16" stroke="none" /><path d="M 120.37134235888165 94.90015583598534 l 18.146649429619238 -4.542905546414073 a39.70665326361559,39.70665326361559 0 0,0 0.16027722896053756,0.6644525884863695 l -18.222159458840594 4.2298677262682975" fill="#ffe315" stroke="none" /><path d="M 120.45610955862082 95.25157060432595 l 19.708962797017293 -4.574995946096846 a41.232987976100176,41.232987976100176 0 0,0 0.15453655211412276,0.6927570615548568 l -19.78479373613345 4.2350607149920245" fill="#fff717" stroke="none" /><path d="M 120.6074358757038 95.95851677861258 l 19.884930677404864 -3.8997871533320625 a41.26373134164808,41.26373134164808 0 0,0 0.1306965342365606,0.6981861119706048 l -19.94911293555128 3.556922963898895" fill="#fff717" stroke="none" /><path d="M 120.67395015179393 96.31383870115 l 22.22147523872936 -3.9620847214459323 a43.57193117846538,43.57193117846538 0 0,0 0.12529656256364186,0.7395074048823478 l -22.286383662813225 3.5789915282477462" fill="#ebff1a" stroke="none" /><path d="M 120.83666639777658 97.38593545837742 l 19.112911891242234 -2.397810873786614 a40.26273339764734,40.26273339764734 0 0,0 0.08035223541933387,0.6884088827896359 l -19.15135447966516 2.068458252672125" fill="#ffea16" stroke="none" /><path d="M 120.87857604477298 97.74499172005257 l 21.625420255509233 -2.335671821150119 a42.7511876476551,42.7511876476551 0 0,0 0.07272358587012577,0.7323165851575165 l -21.66242096706159 1.9630797052881679" fill="#f5ff19" stroke="none" /><path d="M 120.91429891909075 98.10471618934814 l 22.06739027371945 -1.9997786055806823 a43.157816407849985,43.157816407849985 0 0,0 0.06067889555548808,0.7404362197833598 l -22.09854365309443 1.6196284685895537" fill="#f0ff19" stroke="none" /><path d="M 120.96714384426684 98.82574320788733 l 20.037612844499698 -1.1221987675165186 a41.06901239672433,41.06901239672433 0 0,0 0.03345441026294078,0.7061697256390235 l -20.053960862996135 0.7771179352544954" fill="#fff517" stroke="none" /><line stroke="#e1ed5e" stroke-width="0.3" x1="184.98032266829074" x2="189.97916517819016" y1="98.17113171792111" y2="98.06355123074" /><path d="M 185.9800911702706 98.14961562048488 a86.0,86.0 0 0,1 -9.607161424134198,41.387399972396054" fill="none" id="id16" stroke="none" /><text fill="#e1ed5e" style="font-size:6.75px; font-family:Arial;" text-anchor="middle"><textPath startOffset="21.466115282336823" xlink:href="#id16">April</textPath></text><path d="M 120.99513854157772 99.54816195383933 l 41.79631274387121 -0.8995017703508718 a62.80599074795806,62.80599074795806 0 0,0 0.013957862465978249,1.0810518300941372 l -41.805603613454906 0.17991368219627193" fill="#32ff4a" stroke="none" /><path d="M 120.99980553446 99.90962569577887 l 23.178278400304933 -0.09974953244370943 a44.17849303926519,44.17849303926519 0 0,0 -0.0032727905412789104,0.7604812619494694 l -23.17656131247415 -0.2992412077094447" fill="#e3ff1b" stroke="none" /><path d="M 120.9764740272857 100.99374915477107 l 62.92942208185712 2.9812474643131925 a84.0,84.0 0 0,0 -0.0808545964498828,1.4437131346583068 l -62.86878113451971 -4.064032315306923" fill="#4dd2ff" stroke="none" /><path d="M 120.92983693683757 101.71520430193887 l 2.2387172350222575 0.18346332290704692 a23.246222083685804,23.246222083685804 0 0,0 -0.036115113357762685,0.39852726647905323 l -2.2352275253874194 -0.22197197793467074" fill="#ff0000" stroke="none" /><path d="M 120.89721153311464 102.0752229133903 l 29.725089213564143 2.9518860035851433 a50.87129993375764,50.87129993375764 0 0,0 -0.0940336563370554,0.8706348717473553 l -29.669873255726035 -3.46311719721729" fill="#95ff23" stroke="none" /><path d="M 120.8583938346157 102.4346265915055 l 20.248474281440817 2.363435761827415 a41.385939745973324,41.385939745973324 0 0,0 -0.08868118223665149,0.706876276619632 l -20.204791589957317 -2.7116297927344415" fill="#fff917" stroke="none" /><path d="M 120.70491114924044 103.5080841355445 l 19.732694012469704 3.343358989455909 a41.01392670922259,41.01392670922259 0 0,0 -0.12392759825428303,0.6950517845054456 l -19.67221997187623 -3.682529524694573" fill="#fff417" stroke="none" /><path d="M 120.64145759157962 103.86396538481128 l 19.67229129406066 3.682542875808494 a41.01399927027436,41.01399927027436 0 0,0 -0.13587365134138335,0.6928168209131025 l -19.605987709743612 -4.020623423789542" fill="#fff417" stroke="none" /><path d="M 120.5718875245553 104.21870165774334 l 24.01042123830923 4.92384589213141 a45.51009152187136,45.51009152187136 0 0,0 -0.1639792772733795,0.7660565919088997 l -23.922107922311408 -5.336416303456478" fill="#d3ff1c" stroke="none" /><path d="M 120.41448212921028 104.9243191809786 l 42.45804874554156 10.241601158494962 a64.67580906598604,64.67580906598604 0 0,0 -0.27037163213364296,1.0800002716138484 l -42.27546579911286 -10.970929269506206" fill="#35ff61" stroke="none" /><path d="M 120.23288151984713 105.62410040840565 l 19.11245629560074 5.312657673217847 a40.837094474848094,40.837094474848094 0 0,0 -0.19408774841751558,0.6756449141618623 l -19.018175910297124 -5.6408600628842915" fill="#fff216" stroke="none" /><path d="M 120.02730092923936 106.31721596034902 l 22.63640556272695 7.140206411789466 a44.735825336465865,44.735825336465865 0 0,0 -0.2379684927269975,0.7323917124322944 l -22.510144818983704 -7.528797024199556" fill="#ddff1b" stroke="none" /><path d="M 119.9155931802556 106.66101706037122 l 9.329113845411102 3.120237791563043 a30.837085392357807,30.837085392357807 0 0,0 -0.17270114233942085,0.5019503592511472 l -9.27402187212845 -3.2803608539034905" fill="#ff6e0a" stroke="none" /><path d="M 119.79798401119884 107.00284435728193 l 11.513206240858018 4.072394002965631 a33.21221973516373,33.21221973516373 0 0,0 -0.19528111311695878,0.5373297533970631 l -11.441400866735831 -4.269971553368825" fill="#ff8e0d" stroke="none" /><path d="M 119.67450827220406 107.3425965602758 l 19.432467561176722 7.2522661048637564 a41.7416527589279,41.7416527589279 0 0,0 -0.25702068956908847,0.6709999168023019 l -19.304752592014125 -7.585689588499202" fill="#fffd17" stroke="none" /><path d="M 119.41010516605496 108.01547362559984 l 10.470328503911482 4.323760291687593 a32.32796018883345,32.32796018883345 0 0,0 -0.2168267367929186,0.5125143561958457 l -10.394350785926253 -4.503349173549602" fill="#ff820c" stroke="none" /><path d="M 119.26925614724726 108.34839909993367 l 2.0406557966059813 0.8841134751376238 a23.22394530444018,23.22394530444018 0 0,0 -0.16207982057519052,0.36544720757405197 l -2.025134891299518 -0.9191090192043635" fill="#ff0000" stroke="none" /><path d="M 119.12269723197855 108.67885076344098 l 19.287335458486808 8.753571948454223 a42.18080099866309,42.18080099866309 0 0,0 -0.3057613616202054,0.6585827711222232 l -19.133799480026774 -9.084274786855277" fill="#fcff18" stroke="none" /><path d="M 118.97047184881838 109.00673069616215 l 40.937657299382344 19.43623002979127 a66.3173126181665,66.3173126181665 0 0,0 -0.4984748488972141,1.0270058321014828 l -40.59702919387041 -20.138024817858028" fill="#37ff74" stroke="none" /><line stroke="#e1ed5e" stroke-width="0.3" x1="174.80103733775053" x2="179.2010983576182" y1="140.37084112569926" y2="142.7455964860345" /><path d="M 175.68104954172406 140.8457921977663 a86.0,86.0 0 0,1 -30.038265399797805,32.042727171017184" fill="none" id="id17" stroke="none" /><text fill="#e1ed5e" style="font-size:6.75px; font-family:Arial;" text-anchor="middle"><textPath startOffset="22.206326154141568" xlink:href="#id17">May</textPath></text><line stroke="#e1ed5e" stroke-width="0.3" x1="143.8653032363475" x2="146.44561519142675" y1="172.8068346515853" y2="177.08958963109032" /><path d="M 144.38136562736335 173.6633856474863 a86.0,86.0 0 0,1 -40.68145358897372,12.25698825130547" fill="none" id="id18" stroke="none" /><text fill="#e1ed5e" style="font-size:6.75px; font-family:Arial;" text-anchor="middle"><textPath startOffset="21.466115282336833" xlink:href="#id18">June</textPath></text><line stroke="#e1ed5e" stroke-width="0.3" x1="102.19456741930631" x2="102.32365962044197" y1="184.97166512339345" y2="189.96999836594603" /><path d="M 102.22038585953345 185.97133177190398 a86.0,86.0 0 0,1 -42.740103519485714,-10.115201625700543" fill="none" id="id19" stroke="none" /><text fill="#e1ed5e" style="font-size:6.75px; font-family:Arial;" text-anchor="middle"><textPath startOffset="22.20632615414155" xlink:href="#id19">July</textPath></text><line stroke="#e1ed5e" stroke-width="0.3" x1="58.666819895761336" x2="56.23545636021788" y1="174.27360380694188" y2="178.64263932499728" /><path d="M 58.180547188652646 175.14741091055294 a86.0,86.0 0 0,1 -31.652253787137756,-30.449443065178592" fill="none" id="id20" stroke="none" /><text fill="#e1ed5e" style="font-size:6.75px; font-family:Arial;" text-anchor="middle"><textPath startOffset="22.20632615414155" xlink:href="#id20">August</textPath></text><line stroke="#e1ed5e" stroke-width="0.3" x1="26.63291911575756" x2="22.317208475507996" y1="142.92168965132927" y2="145.44649492493687" /><path d="M 25.769776987707644 143.4266507060508 a86.0,86.0 0 0,1 -11.730757126820373,-40.83630448921669" fill="none" id="id21" stroke="none" /><text fill="#e1ed5e" style="font-size:6.75px; font-family:Arial;" text-anchor="middle"><textPath startOffset="21.46611528233685" xlink:href="#id21">September</textPath></text><line stroke="#e1ed5e" stroke-width="0.3" x1="15.007084014347285" x2="10.007500721073583" y1="101.09737516637583" y2="101.16192664675087" /><path d="M 14.007167355692545 101.11028546245083 a86.0,86.0 0 0,1 10.666146001902534,-42.60595125391555" fill="none" id="id22" stroke="none" /><text fill="#e1ed5e" style="font-size:6.75px; font-family:Arial;" text-anchor="middle"><textPath startOffset="22.20632615414155" xlink:href="#id22">October</textPath></text><line stroke="#e1ed5e" stroke-width="0.3" x1="26.266209847984243" x2="21.928928074336255" y1="57.711370442889674" y2="55.22380399835377" /><path d="M 25.398753493254645 57.213857153982495 a86.0,86.0 0 0,1 29.58750427330803,-30.492523968695096" fill="none" id="id23" stroke="none" /><text fill="#e1ed5e" style="font-size:6.75px; font-family:Arial;" text-anchor="middle"><textPath startOffset="21.46611528233685" xlink:href="#id23">November</textPath></text><line stroke="#e1ed5e" stroke-width="0.3" x1="56.762969772571076" x2="54.21961505331055" y1="26.818313649435495" y2="22.513508569990535" /><path d="M 56.25429882871897 25.957352633546506 a86.0,86.0 0 0,1 42.265352541879196,-11.944610805530505" fill="none" id="id24" stroke="none" /><text fill="#e1ed5e" style="font-size:6.75px; font-family:Arial;" text-anchor="middle"><textPath startOffset="22.20632615414155" xlink:href="#id24">December</textPath></text></svg>