<?xml version="1.0" encoding="utf-8" ?>
<svg baseProfile="full" height="200mm" version="1.1" viewBox="0,0,200,200" width="200mm" xmlns="http://www.w3.org/2000/svg" xmlns:ev="http://www.w3.org/2001/xml-events" xmlns:xlink="http://www.w3.org/1999/xlink"><defs /><rect fill="#1a1a1a" height="200" width="200" x="0" y="0" /><text alignment-baseline="middle" fill="#e1ed5e" style="dominant-baseline: central; font-size:9.0px; font-family:Arial;" text-anchor="middle" x="100.0" y="100.0">2024</text><line stroke="#e1ed5e" stroke-width="0.3" x1="100.0" x2="100.0" y1="15.0" y2="10.0" /><path d="M 100.0 14.0 a86.0,86.0 0 0,1 42.35913384403234,11.155469271406648" fill="none" id="id25" stroke="none" /><text fill="#e1ed5e" style="font-size:6.75px; font-family:Arial;" text-anchor="middle"><textPath startOffset="22.145653131862478" xlink:href="#id25">January</textPath></text><path d="M 100.36049292484886 79.00309439819443 l 0.4097783349575038 -23.86753365652109 a44.87105111068567,44.87105111068567 0 0,0 0.7700442573305899,0.01983360853380748 l -0.8194359063588351 23.856982330637237" fill="#ffdf14" stroke="none" /><path d="M 100.72087961077811 79.0123766808444 l 0.803004593036419 -23.37860257139053 a44.39238924452707,44.39238924452707 0 0,0 0.7613807157742454,0.03269696395493341 l -1.2042110694115007 23.361373039009766" fill="#ffd814" stroke="none" /><path d="M 101.44090949804482 79.04949213459386 l 1.7571452818890552 -25.548506758287033 a46.60886091023775,46.60886091023775 0 0,0 0.7977461775880038,0.06175059944475098 l -2.1954604542522924 25.514578391847227" fill="#fff817" stroke="none" /><path d="M 101.80034050326958 79.07731436759882 l 4.980057274141594 -57.875814374551744 a79.08967946177101,79.08967946177101 0 0,0 1.351681928122333,0.12800568393158687 l -5.97283876564894 57.781796935114976" fill="#46fff6" stroke="none" /><path d="M 102.15924093988457 79.11130261209362 l 1.9839999091194462 -19.193399381101663 a40.29566882597905,40.29566882597905 0 0,0 0.6874519743491556,0.07703042761342341 l -2.3131877850693985 19.15651319298127" fill="#ff9b0e" stroke="none" /><path d="M 102.87502721639298 79.19773525538626 l 3.8770112628284217 -28.052122166826173 a49.31877070768854,49.31877070768854 0 0,0 0.837655587320179,0.1231065250816929 l -4.357991955756282 27.981434568445597" fill="#e0ff1b" stroke="none" /><path d="M 103.23170211078529 79.25015418208739 l 3.6898152032391347 -23.691260499624846 a44.97687553237784,44.97687553237784 0 0,0 0.7618707842499383,0.12536554762249244 l -4.095963490542143 23.624428953506683" fill="#ffe115" stroke="none" /><path d="M 103.58742460773223 79.30868818359171 l 3.0952429789746607 -17.852538973912733 a39.1188762596902,39.1188762596902 0 0,0 0.6606717462774468,0.12039640030555783 l -3.401249458803161 17.796774399675808" fill="#ff890c" stroke="none" /><path d="M 103.94208987418118 79.37332000966035 l 1.8194762481074986 -9.520268567578677 a30.69257485997678,30.69257485997678 0 0,0 0.5166634800526662,0.10334716601520569 l -1.9826362136911218 9.487632004900613" fill="#ff0000" stroke="none" /><path d="M 104.29559338865022 79.4440306129975 l 7.3852080189479254 -35.34089384606339 a57.10429441661828,57.10429441661828 0 0,0 0.9578227936180522,0.20875301984126715 l -7.990793229185111 35.208909368088406" fill="#7aff26" stroke="none" /><path d="M 104.64783097203109 79.52079915486377 l 9.189812713206784 -40.492010448629856 a62.52174813125968,62.52174813125968 0 0,0 1.0446129100586883,0.24652580244036057 l -9.883557777005358 40.328288502543266" fill="#3aff2e" stroke="none" /><path d="M 105.3480935250658 79.69241777938227 l 6.366948157561955 -24.176339212861667 a46.00066812260093,46.00066812260093 0 0,0 0.7618994258319615,0.20765907652675641 l -6.781028984328609 24.063479642190767" fill="#fff016" stroke="none" /><path d="M 105.69591212413111 79.78721728523813 l 6.50223063311365 -23.074122648695813 a44.97277912994775,44.97277912994775 0 0,0 0.7412798672002359,0.21577576581344987 l -6.897370512695491 22.959103188579846" fill="#ffe115" stroke="none" /><path d="M 106.38641147887787 79.99465700312896 l 8.338928837893326 -26.121575814571035 a48.42032926862534,48.42032926862534 0 0,0 0.7896600861958903,0.2595769549748842 l -8.786111661736959 25.974577938194127" fill="#ecff1a" stroke="none" /><path d="M 107.06938296918511 80.22567764915836 l 19.694288200025984 -55.088429221508335 a79.50299156281511,79.50299156281511 0 0,0 1.281174991467011,0.47046520298941813 l -20.63705234314712 54.74223316951019" fill="#47fffb" stroke="none" /><path d="M 107.74402155503746 80.48000691201159 l 9.322882915684447 -23.499755105395646 a46.28150778480448,46.28150778480448 0 0,0 0.7359763359102568,0.299315168661956 l -9.724913712785144 23.336252680154395" fill="#fff417" stroke="none" /><path d="M 108.07796709384702 80.6158196554323 l 9.198542832230219 -22.07315418541339 a44.913120372076214,44.913120372076214 0 0,0 0.7091245419061372,0.3026830997879788 l -9.576102449306786 21.911996435966007" fill="#ffe015" stroke="none" /><path d="M 108.4095320186766 80.7573450057729 l 9.618698253031681 -22.009463970837103 a45.019489177883266,45.019489177883266 0 0,0 0.7054909761298725,0.3155571401399476 l -9.995102632017185 21.841103079787306" fill="#ffe215" stroke="none" /><path d="M 109.06512990194946 81.05736502329252 l 23.513754647916844 -49.13470364407705 a75.47123791354213,75.47123791354213 0 0,0 1.163837470181177,0.5692912273049825 l -24.35375236736009 48.723818666674845" fill="#41ffcc" stroke="none" /><path d="M 109.3889696526874 81.21577127319529 l 6.282012980744299 -12.568234115154622 a35.05077207357576,35.05077207357576 0 0,0 0.5358975605117653,0.2736331128186019 l -6.496837762969643 12.458543050663188" fill="#ff4806" stroke="none" /><path d="M 110.02825361518725 81.54914285379988 l 11.383787625088916 -20.944887047441735 a44.83860134578411,44.83860134578411 0 0,0 0.6731252223433403,0.3733712139710801 l -11.741657035588357 20.74638291803751" fill="#ffdf14" stroke="none" /><path d="M 110.34350942703115 81.72400993836675 l 12.628265461155006 -22.312935052835268 a46.638645815047354,46.638645815047354 0 0,0 0.6933779291547114,0.40032193404761796 l -13.009435858170114 22.09286622151148" fill="#fff917" stroke="none" /><line stroke="#e1ed5e" stroke-width="0.3" x1="143.13028292997686" x2="145.6673583964461" y1="26.7553504044142" y2="22.446841604673864" /><path d="M 143.63769802327073 25.89364864446614 a86.0,86.0 0 0,1 29.32050498858742,28.57503671076993" fill="none" id="id26" stroke="none" /><text fill="#e1ed5e" style="font-size:6.75px; font-family:Arial;" text-anchor="middle"><textPath startOffset="20.669276256404974" xlink:href="#id26">February</textPath></text><path d="M 111.27062007382361 82.28071324371311 l 31.352501593521477 -49.29134001711391 a79.41759629473385,79.41759629473385 0 0,0 1.1440459014652213,0.7415567313593033 l -32.194033127243706 48.74586944405072" fill="#46fffa" stroke="none" /><path d="M 112.16784306229584 82.88440491214696 l 14.691242610984183 -20.665072567066332 a46.35503566664647,46.35503566664647 0 0,0 0.6445976514025136,0.46663898966203204 l -15.043821272760665 20.409832806031226" fill="#fff517" stroke="none" /><path d="M 112.7482090630111 83.31218511350987 l 15.36243592044226 -20.109921760677018 a46.30639031213748,46.30639031213748 0 0,0 0.6275399134606686,0.48797883234824874 l -15.705385778538155 19.84324187670798" fill="#fff417" stroke="none" /><path d="M 113.03279911837588 83.53348406188908 l 25.961887157078195 -32.801996315027964 a62.832888341686015,62.832888341686015 0 0,0 0.8400135713467782,0.6766554716362171 l -26.52115149878023 32.35149254959834" fill="#37ff2e" stroke="none" /><path d="M 113.31354834802062 83.75963576809568 l 16.091183827932277 -19.628627880185014 a46.38127714365622,46.38127714365622 0 0,0 0.6114060917959248,0.5100567071873456 l -16.425764253890094 19.3495089890858" fill="#fff517" stroke="none" /><path d="M 113.59037401385872 83.9905735841838 l 13.697879815196993 -16.136067979473182 a42.16611918301891,42.16611918301891 0 0,0 0.547799170090117,0.47317587603192063 l -13.97285846504997 15.898547970976542" fill="#ffb711" stroke="none" /><path d="M 113.86319453409587 84.22622945171908 l 14.404774976191716 -16.389989674835476 a42.82038733973191,42.82038733973191 0 0,0 0.5479683639597868,0.4899966899934477 l -14.68400836697488 16.14029745495864" fill="#ffc112" stroke="none" /><path d="M 114.13192950727249 84.46653392183569 l 9.729713747120739 -10.694659803063134 a35.45832209850661,35.45832209850661 0 0,0 0.44672458982976126,0.41348161113554843 l -9.911868108264466 10.526060445795212" fill="#ff4f07" stroke="none" /><path d="M 114.65682725009322 84.96080404539774 l 16.444855621110015 -16.873870579967644 a44.56185019790787,44.56185019790787 0 0,0 0.5432473192677449,0.5386042076869042 l -16.732094860507722 16.589086362052083" fill="#ffdb14" stroke="none" /><path d="M 115.16444852881244 85.47280134310134 l 35.0996719538625 -33.62469174509877 a69.60665454669427,69.60665454669427 0 0,0 0.8191846954452822,0.8699457585939653 l -35.67171248304404 33.01720452656031" fill="#38ff83" stroke="none" /><path d="M 115.41159269507618 85.73525988315684 l 19.83013114003132 -18.354473336544874 a48.020747445116626,48.020747445116626 0 0,0 0.5547592255941347,0.609777568440359 l -20.142288066467334 18.011358192546844" fill="#f2ff19" stroke="none" /><path d="M 116.1254893667686 86.54754324733833 l 15.17563409085729 -12.660053698722919 a40.763016715930235,40.763016715930235 0 0,0 0.4436436727549928,0.5411731453089261 l -15.390724582850911 12.397678271715497" fill="#ffa20f" stroke="none" /><path d="M 116.35404254752997 86.82634096563983 l 15.51858956749298 -12.5006772522558 a40.92720637543977,40.92720637543977 0 0,0 0.43603761744031766,0.5509192854107073 l -15.730893615574857 12.232438022930415" fill="#ffa50f" stroke="none" /><path d="M 116.57777611688842 87.10902102172516 l 15.63293613728554 -12.156265695322132 a40.80311813648835,40.80311813648835 0 0,0 0.4252229391404333,0.5566304771745518 l -15.83931105378028 11.886114304906698" fill="#ffa30f" stroke="none" /><path d="M 117.01052211995028 87.68569379921539 l 33.781691000275494 -24.455339114476164 a62.70451124329504,62.70451124329504 0 0,0 0.6237155072753647,0.877333971015716 l -34.19652160608082 23.871827916750945" fill="#38ff2e" stroke="none" /><line stroke="#e1ed5e" stroke-width="0.3" x1="172.87174338648825" x2="177.1583165268699" y1="56.24261187166439" y2="53.66864786411523" /><path d="M 173.72905801456457 55.72781907015455 a86.0,86.0 0 0,1 12.242430191666344,42.057860355516425" fill="none" id="id27" stroke="none" /><text fill="#e1ed5e" style="font-size:6.75px; font-family:Arial;" text-anchor="middle"><textPath startOffset="22.145653131862474" xlink:href="#id27">March</textPath></text><path d="M 119.31412917781788 91.75594674310238 l 18.00711136028936 -7.686165070678252 a40.57889662456944,40.57889662456944 0 0,0 0.26796401043111995,0.643016076161894 l -18.136401215256964 7.37591648507508" fill="#ff9f0e" stroke="none" /><path d="M 119.4528033332814 92.08871423366111 l 27.54322760723379 -11.20159088614937 a50.73390363548907,50.73390363548907 0 0,0 0.32117297016394636,0.8095656905255899 l -27.73145925236386 10.727124178410214" fill="#cdff1d" stroke="none" /><path d="M 119.71291397450082 92.76114493625339 l 18.424991719248464 -6.7659121720358675 a40.62798734904008,40.62798734904008 0 0,0 0.23479074457792048,0.656751499885593 l -18.53842263387033 6.448625715769357" fill="#ffa00e" stroke="none" /><path d="M 119.94978838288452 93.4421083053983 l 20.914303055739303 -6.874946825264748 a43.01528937255934,43.01528937255934 0 0,0 0.22457111791828913,0.7034658283458411 l -21.029238889434847 6.51491196322752" fill="#ffc412" stroke="none" /><path d="M 120.16314734710363 94.1308016681162 l 39.796129701394236 -11.584073361067118 a62.447831002897814,62.447831002897814 0 0,0 0.2907734801016673,1.0318525013071091 l -39.98912167357049 10.899212935856996" fill="#3bff2e" stroke="none" /><path d="M 120.26092885502905 94.47779374421319 l 21.31570678180597 -5.80969067011896 a43.09325375064516,43.09325375064516 0 0,0 0.1884006666981065,0.715388018451663 l -21.41229692930881 5.442922147294499" fill="#ffc512" stroke="none" /><path d="M 120.35273937422433 94.82641323984039 l 25.14983585727908 -6.3929899272522555 a46.9496544072947,46.9496544072947 0 0,0 0.19185076066167944,0.782816572732244 l -25.25587414445705 5.960317529911917" fill="#fffd17" stroke="none" /><path d="M 120.51834098615036 95.52812308129327 l 24.678532846355424 -5.378571371713435 a46.25785053105784,46.25785053105784 0 0,0 0.16243618050021355,0.777315926252811 l -24.767226737680005 4.95413899417522" fill="#fff316" stroke="none" /><path d="M 120.65975698304385 96.23510406497455 l 22.43543125718278 -4.08848293859581 a43.80491763710106,43.80491763710106 0 0,0 0.1284635165437387,0.7409434255732337 l -22.502309591218754 3.702746480101984" fill="#ffd013" stroke="none" /><path d="M 120.77682067341334 96.94652285012252 l 62.330462020240034 -9.160431449632455 a84.0,84.0 0 0,0 0.19742193377914985,1.4284467671996575 l -62.478528470574396 8.089096374232712" fill="#4dd2ff" stroke="none" /><path d="M 120.96210409425399 98.7389718711861 l 41.09089547106924 -2.471926233844729 a62.16518079542355,62.16518079542355 0 0,0 0.054937473652754976,1.0657723121994118 l -41.12727453417856 1.766182128268587" fill="#3eff2d" stroke="none" /><path d="M 120.98066250479742 99.09900007780936 l 29.687325155870294 -1.2749014788913926 a50.714687423751386,50.714687423751386 0 0,0 0.029886196701234904,0.8701040082555445 l -29.704836039568377 0.7650912060717281" fill="#cdff1d" stroke="none" /><line stroke="#e1ed5e" stroke-width="0.3" x1="184.99686870605535" x2="189.99668451229388" y1="99.2704041080226" y2="99.22748670261217" /><path d="M 185.99683186730306 99.26182062694052 a86.0,86.0 0 0,1 -10.086455211305974,41.156179273409016" fill="none" id="id28" stroke="none" /><text fill="#e1ed5e" style="font-size:6.75px; font-family:Arial;" text-anchor="middle"><textPath startOffset="21.40746469413373" xlink:href="#id28">April</textPath></text><path d="M 120.99922638620191 99.81974689727618 l 20.60318634343494 -0.17685357527463932 a41.603945367074516,41.603945367074516 0 0,0 0.0,0.7142133559969299 l -20.60318634343494 -0.17685357527463683" fill="#ffaf10" stroke="none" /><path d="M 120.99922638620191 100.18025310272382 l 23.285551448637136 0.1998784536181798 a44.28640929090073,44.28640929090073 0 0,0 -0.01305092729267182,0.7601510861695787 l -23.278689089745793 -0.5995764557568296" fill="#ffd714" stroke="none" /><line stroke="#e1ed5e" stroke-width="0.3" x1="174.33088141563837" x2="178.70328620479359" y1="141.23008692659167" y2="143.65538615756765" /><path d="M 175.20536237346943 141.71514677278685 a86.0,86.0 0 0,1 -30.301960400862466,31.631185727798858" fill="none" id="id29" stroke="none" /><text fill="#e1ed5e" style="font-size:6.75px; font-family:Arial;" text-anchor="middle"><textPath startOffset="22.145653131862474" xlink:href="#id29">May</textPath></text><line stroke="#e1ed5e" stroke-width="0.3" x1="143.1302829299769" x2="145.66735839644613" y1="173.24464959558577" y2="177.55315839532614" /><path d="M 143.63769802327073 174.10635135553383 a86.0,86.0 0 0,1 -40.68552437913181,11.842963189579606" fill="none" id="id30" stroke="none" /><text fill="#e1ed5e" style="font-size:6.75px; font-family:Arial;" text-anchor="middle"><textPath startOffset="21.407464694133747" xlink:href="#id30">June</textPath></text><line stroke="#e1ed5e" stroke-width="0.3" x1="101.45913802915013" x2="101.54496967792366" y1="184.9874750549273" y2="189.98673829345242" /><path d="M 101.47630435890484 185.9873277026323 a86.0,86.0 0 0,1 -42.54439059252881,-10.42667462771756" fill="none" id="id31" stroke="none" /><text fill="#e1ed5e" style="font-size:6.75px; font-family:Arial;" text-anchor="middle"><textPath startOffset="22.145653131862474" xlink:href="#id31">July</textPath></text><line stroke="#e1ed5e" stroke-width="0.3" x1="58.13341422392154" x2="55.67067388415222" y1="173.97424548756322" y2="178.32567169271397" /><path d="M 57.64086615596768 174.84453072859336 a86.0,86.0 0 0,1 -31.369924170532247,-30.572349798747897" fill="none" id="id32" stroke="none" /><text fill="#e1ed5e" style="font-size:6.75px; font-family:Arial;" text-anchor="middle"><textPath startOffset="22.145653131862474" xlink:href="#id32">August</textPath></text><line stroke="#e1ed5e" stroke-width="0.3" x1="26.387840678322732" x2="22.057713659400548" y1="142.50000000000003" y2="145.00000000000006" /><path d="M 25.521815274538298 143.00000000000003 a86.0,86.0 0 0,1 -11.493303480769221,-40.785679425670985" fill="none" id="id33" stroke="none" /><text fill="#e1ed5e" style="font-size:6.75px; font-family:Arial;" text-anchor="middle"><textPath startOffset="21.40746469413373" xlink:href="#id33">September</textPath></text><line stroke="#e1ed5e" stroke-width="0.3" x1="15.003131293944662" x2="10.003315487706104" y1="100.72959589197737" y2="100.7725132973878" /><path d="M 14.003168132696942 100.73817937305945 a86.0,86.0 0 0,1 10.791469493833604,-42.45332614584628" fill="none" id="id34" stroke="none" /><text fill="#e1ed5e" style="font-size:6.75px; font-family:Arial;" text-anchor="middle"><textPath startOffset="22.145653131862435" xlink:href="#id34">October</textPath></text><line stroke="#e1ed5e" stroke-width="0.3" x1="26.387840678322718" x2="22.05771365940052" y1="57.49999999999999" y2="54.99999999999999" /><path d="M 25.521815274538284 56.99999999999999 a86.0,86.0 0 0,1 29.574782752854787,-30.34633250058573" fill="none" id="id35" stroke="none" /><text fill="#e1ed5e" style="font-size:6.75px; font-family:Arial;" text-anchor="middle"><textPath startOffset="21.40746469413373" xlink:href="#id35">November</textPath></text><line stroke="#e1ed5e" stroke-width="0.3" x1="56.869717070023135" x2="54.33264160355391" y1="26.7553504044142" y2="22.446841604673864" /><path d="M 56.362301976729285 25.89364864446614 a86.0,86.0 0 0,1 42.16139366436587,-11.88097634709845" fill="none" id="id36" stroke="none" /><text fill="#e1ed5e" style="font-size:6.75px; font-family:Arial;" text-anchor="middle"><textPath startOffset="22.145653131862474" xlink:href="#id36">December</textPath></text></svg>