<?xml version="1.0" encoding="utf-8" ?>
<svg baseProfile="full" height="200mm" version="1.1" viewBox="0,0,200,200" width="200mm" xmlns="http://www.w3.org/2000/svg" xmlns:ev="http://www.w3.org/2001/xml-events" xmlns:xlink="http://www.w3.org/1999/xlink"><defs /><rect fill="#1a1a1a" height="200" width="200" x="0" y="0" /><text alignment-baseline="middle" fill="#e1ed5e" style="dominant-baseline: central; font-size:9.0px; font-family:Arial;" text-anchor="middle" x="100.0" y="100.0">2024</text><line stroke="#e1ed5e" stroke-width="0.3" x1="100.0" x2="100.0" y1="15.0" y2="10.0" /><path d="M 100.0 14.0 a86.0,86.0 0 0,1 42.35913384403234,11.155469271406648" fill="none" id="id25" stroke="none" /><text fill="#e1ed5e" style="font-size:6.75px; font-family:Arial;" text-anchor="middle"><textPath startOffset="22.145653131862478" xlink:href="#id25">January</textPath></text><path d="M 100.36049292484886 79.00309439819443 l 0.4412771793832776 -25.702183430164304 a46.70597126402457,46.70597126402457 0 0,0 0.8015338189023334,0.020644667938730824 l -0.8824243123563523 25.690821044875527" fill="#fff216" stroke="none" /><path d="M 100.72087961077811 79.0123766808444 l 0.8647299567061675 -25.175669186355897 a46.19051561359662,46.19051561359662 0 0,0 0.7922206585039219,0.0340213637918521 l -1.2967763758109256 25.157115254138215" fill="#ffeb16" stroke="none" /><path d="M 101.44090949804482 79.04949213459386 l 1.8922135398862614 -27.51236958615852 a48.577363041558364,48.577363041558364 0 0,0 0.831438591866464,0.0643586053956241 l -2.364221126527959 27.475833213767842" fill="#f1ff19" stroke="none" /><path d="M 101.80034050326958 79.07731436759882 l 5.3628643576978705 -62.3246129504648 a83.55491742096947,83.55491742096947 0 0,0 1.427995063986435,0.13523261724038554 l -6.431958985069318 62.22336857771923" fill="#4cd7ff" stroke="none" /><path d="M 102.15924093988457 79.11130261209362 l 2.1365060304705996 -20.668757762773453 a41.7788884561818,41.7788884561818 0 0,0 0.7127559907083265,0.07986579542559584 l -2.4909979227797225 20.629036206840887" fill="#ffa90f" stroke="none" /><path d="M 102.87502721639298 79.19773525538626 l 4.175029396504205 -30.20843292453691 a51.49557820763397,51.49557820763397 0 0,0 0.8746276151847238,0.12854013997607777 l -4.692982117296611 30.13231171126195" fill="#c9ff1d" stroke="none" /><path d="M 103.23170211078529 79.25015418208739 l 3.97344394866497 -25.512360506792266 a46.81993019823477,46.81993019823477 0 0,0 0.7930905941427152,0.1305027554598179 l -4.410812045860756 25.440391752836778" fill="#fff417" stroke="none" /><path d="M 103.58742460773223 79.30868818359171 l 3.3331681417698142 -19.2248280867636 a40.51163818921732,40.51163818921732 0 0,0 0.68419385488867,0.12468291205718698 l -3.662696730209538 19.164777000775047" fill="#ff950d" stroke="none" /><path d="M 103.94208987418118 79.37332000966035 l 1.9593357633292392 -10.252072650224587 a31.437623784125577,31.437623784125577 0 0,0 0.5292052616306652,0.10585587358388422 l -2.135037510490861 10.216927379977843" fill="#ff0000" stroke="none" /><path d="M 104.29559338865022 79.4440306129975 l 7.952894249760839 -38.05747796523206 a59.879559617130475,59.879559617130475 0 0,0 1.0043729225451679,0.21889840378105543 l -8.605029588925142 37.915348103317285" fill="#5dff2a" stroke="none" /><path d="M 104.64783097203109 79.52079915486377 l 9.896215312517743 -43.604550641220726 a65.71344220851816,65.71344220851816 0 0,0 1.0979397113353002,0.25911078234028906 l -10.643287177592928 43.42824371523421" fill="#32ff4b" stroke="none" /><path d="M 105.3480935250658 79.69241777938227 l 6.85636278096514 -26.034726254552485 a47.9224196857134,47.9224196857134 0 0,0 0.7937289942335493,0.21633436693441283 l -7.302273176133383 25.91319139347393" fill="#faff18" stroke="none" /><path d="M 105.69591212413111 79.78721728523813 l 7.002044150961509 -24.84778449845629 a46.81551891350896,46.81551891350896 0 0,0 0.7716534827176549,0.22461708262075503 l -7.427557646060768 24.723923721533016" fill="#fff417" stroke="none" /><path d="M 106.38641147887787 79.99465700312896 l 8.979925688470212 -28.12948931937981 a50.52807536463476,50.52807536463476 0 0,0 0.8240341391813649,0.2708763889466569 l -9.461482565299319 27.97119200903113" fill="#d6ff1c" stroke="none" /><path d="M 107.06938296918511 80.22567764915836 l 21.208148907555344 -59.32296705252493 a84.0,84.0 0 0,0 1.3536433933835013,0.49707660396511244 l -22.22338145259297 58.9501595995511" fill="#4dd2ff" stroke="none" /><path d="M 107.74402155503746 80.48000691201159 l 10.039514356415207 -25.306134474342524 a48.224846933383745,48.224846933383745 0 0,0 0.7668796425322574,0.31188327443173736 l -10.472448460137905 25.130063943331493" fill="#f6ff19" stroke="none" /><path d="M 108.07796709384702 80.6158196554323 l 9.905616498402159 -23.769873583095936 a46.751274305746094,46.751274305746094 0 0,0 0.7381467976605386,0.3150709749995302 l -10.312198371233128 23.596327958437005" fill="#fff316" stroke="none" /><path d="M 108.4095320186766 80.7573450057729 l 10.3580684295495 -23.70128762858116 a46.865819469793806,46.865819469793806 0 0,0 0.7344244310331777,0.3284987064995071 l -10.763406263438307 23.5199851711718" fill="#fff417" stroke="none" /><path d="M 109.06512990194946 81.05736502329252 l 25.32121013381352 -52.911590448382555 a79.65833347801579,79.65833347801579 0 0,0 1.2284064217961796,0.6008751371313078 l -26.225776804871767 52.469121561154026" fill="#47fffc" stroke="none" /><path d="M 109.3889696526874 81.21577127319529 l 6.764898806276478 -13.534329238609633 a36.13082693702643,36.13082693702643 0 0,0 0.5524107136408066,0.2820648464671648 l -6.996236741630863 13.416206440469635" fill="#ff4f07" stroke="none" /><path d="M 110.02825361518725 81.54914285379988 l 12.258836705992405 -22.55487879747213 a46.67102715032736,46.67102715032736 0 0,0 0.7006339311364351,0.3886298310246777 l -12.644214825284939 22.341116051014307" fill="#fff216" stroke="none" /><path d="M 110.34350942703115 81.72400993836675 l 13.59897507460869 -24.028085928209236 a48.609437452676126,48.609437452676126 0 0,0 0.7226777383711612,0.4172381867859399 l -14.009445280840248 23.791100844147127" fill="#f1ff19" stroke="none" /><line stroke="#e1ed5e" stroke-width="0.3" x1="143.13028292997686" x2="145.6673583964461" y1="26.7553504044142" y2="22.446841604673864" /><path d="M 143.63769802327073 25.89364864446614 a86.0,86.0 0 0,1 29.32050498858742,28.57503671076993" fill="none" id="id26" stroke="none" /><text fill="#e1ed5e" style="font-size:6.75px; font-family:Arial;" text-anchor="middle"><textPath startOffset="20.669276256404974" xlink:href="#id26">February</textPath></text><path d="M 111.27062007382361 82.28071324371311 l 33.762505944179914 -53.08026714743182 a83.90804056774869,83.90804056774869 0 0,0 1.208732754328851,0.7834859678611236 l -34.66872433076578 52.4928673378668" fill="#4dd3ff" stroke="none" /><path d="M 112.16784306229584 82.88440491214696 l 15.820529168978226 -22.253555535315137 a48.304026757052625,48.304026757052625 0 0,0 0.6716996708792061,0.48625876171501353 l -16.2002098502314 21.978696002227046" fill="#f5ff19" stroke="none" /><path d="M 112.7482090630111 83.31218511350987 l 16.543315771274568 -21.655731392168978 a48.25164213103267,48.25164213103267 0 0,0 0.6539017859767546,0.5084779838651178 l -16.912627501886547 21.368552356683068" fill="#f6ff19" stroke="none" /><path d="M 113.03279911837588 83.53348406188908 l 27.957525712847882 -35.32342043787482 a66.0484991472016,66.0484991472016 0 0,0 0.8830031073699117,0.7112847987868696 l -28.559779590573054 34.838287345294546" fill="#33ff50" stroke="none" /><path d="M 113.31354834802062 83.75963576809568 l 17.328081078918295 -21.137441409708167 a48.332285364133234,48.332285364133234 0 0,0 0.6371246227335043,0.5315120204067242 l -17.68838003581369 20.836867205389574" fill="#f5ff19" stroke="none" /><path d="M 113.59037401385872 83.9905735841838 l 14.750808553624763 -17.376415385789443 a43.79311660666855,43.79311660666855 0 0,0 0.5689362312112876,0.4914335660008645 l -15.04692426459891 17.120637687323857" fill="#ffc712" stroke="none" /><path d="M 113.86319453409587 84.22622945171908 l 15.512041337675655 -17.649855536121724 a44.49767705343924,44.49767705343924 0 0,0 0.5694324785418138,0.5091900336069947 l -15.812738843040844 17.380969972631345" fill="#ffd213" stroke="none" /><path d="M 114.13192950727249 84.46653392183569 l 10.47761746355233 -11.516737000868613 a36.56970452062957,36.56970452062957 0 0,0 0.4607264327620808,0.4264415079183261 l -10.673773667628376 11.335177746817912" fill="#ff5608" stroke="none" /><path d="M 114.65682725009322 84.96080404539774 l 17.708938918406282 -18.17093140265404 a46.3730026929373,46.3730026929373 0 0,0 0.5653268274869979,0.5604950032946521 l -18.018257666023242 17.86425638913073" fill="#ffed16" stroke="none" /><path d="M 115.16444852881244 85.47280134310134 l 37.79771382663515 -36.209354827038666 a73.34295126863401,73.34295126863401 0 0,0 0.8631563115527936,0.9166420911108449 l -38.41372597192421 35.55517127598333" fill="#3dffb0" stroke="none" /><path d="M 115.41159269507618 85.73525988315684 l 21.354433823791585 -19.765345144115653 a50.097778482226275,50.097778482226275 0 0,0 0.5787541067858291,0.6361521461545315 l -21.690585631419292 19.39585542240345" fill="#dcff1b" stroke="none" /><path d="M 116.1254893667686 86.54754324733833 l 16.342154857114874 -13.633206810683735 a42.282160447586065,42.282160447586065 0 0,0 0.46017725046469,0.5613414217926251 l -16.573778926818193 13.350663107192615" fill="#ffb010" stroke="none" /><path d="M 116.35404254752997 86.82634096563983 l 16.711472638152607 -13.461579414217214 a42.45897103919477,42.45897103919477 0 0,0 0.4523570067564623,0.5715383006992681 l -16.94009607555063 13.172721169603268" fill="#ffb310" stroke="none" /><path d="M 116.57777611688842 87.10902102172516 l 16.83460880101355 -13.090693626889161 a42.325344384469844,42.325344384469844 0 0,0 0.44108656792091533,0.5773964764775279 l -17.056847346288777 12.799776237170752" fill="#ffb110" stroke="none" /><path d="M 117.01052211995028 87.68569379921539 l 36.37842230225511 -26.335172322901663 a65.91025395695439,65.91025395695439 0 0,0 0.655602709698271,0.9221873145672965 l -36.82514011048334 25.706807781624864" fill="#32ff4e" stroke="none" /><line stroke="#e1ed5e" stroke-width="0.3" x1="172.87174338648825" x2="177.1583165268699" y1="56.24261187166439" y2="53.66864786411523" /><path d="M 173.72905801456457 55.72781907015455 a86.0,86.0 0 0,1 12.242430191666344,42.057860355516425" fill="none" id="id27" stroke="none" /><text fill="#e1ed5e" style="font-size:6.75px; font-family:Arial;" text-anchor="middle"><textPath startOffset="22.145653131862474" xlink:href="#id27">March</textPath></text><path d="M 119.31412917781788 91.75594674310238 l 19.39128214460903 -8.27698527062176 a42.083887411526426,42.083887411526426 0 0,0 0.27790226406738827,0.6668642669947356 l -19.5305102532129 7.942888494185746" fill="#ffad10" stroke="none" /><path d="M 119.4528033332814 92.08871423366111 l 29.66042065374736 -12.06263486662378 a53.01948958498137,53.01948958498137 0 0,0 0.3356419618117709,0.8460370013230107 l -29.863121290525253 11.551696848087204" fill="#b4ff20" stroke="none" /><line stroke="#e1ed5e" stroke-width="0.3" x1="184.99686870605535" x2="189.99668451229388" y1="99.2704041080226" y2="99.22748670261217" /><path d="M 185.99683186730306 99.26182062694052 a86.0,86.0 0 0,1 -10.086455211305974,41.156179273409016" fill="none" id="id28" stroke="none" /><text fill="#e1ed5e" style="font-size:6.75px; font-family:Arial;" text-anchor="middle"><textPath startOffset="21.40746469413373" xlink:href="#id28">April</textPath></text><line stroke="#e1ed5e" stroke-width="0.3" x1="174.33088141563837" x2="178.70328620479359" y1="141.23008692659167" y2="143.65538615756765" /><path d="M 175.20536237346943 141.71514677278685 a86.0,86.0 0 0,1 -30.301960400862466,31.631185727798858" fill="none" id="id29" stroke="none" /><text fill="#e1ed5e" style="font-size:6.75px; font-family:Arial;" text-anchor="middle"><textPath startOffset="22.145653131862474" xlink:href="#id29">May</textPath></text><line stroke="#e1ed5e" stroke-width="0.3" x1="143.1302829299769" x2="145.66735839644613" y1="173.24464959558577" y2="177.55315839532614" /><path d="M 143.63769802327073 174.10635135553383 a86.0,86.0 0 0,1 -40.68552437913181,11.842963189579606" fill="none" id="id30" stroke="none" /><text fill="#e1ed5e" style="font-size:6.75px; font-family:Arial;" text-anchor="middle"><textPath startOffset="21.407464694133747" xlink:href="#id30">June</textPath></text><line stroke="#e1ed5e" stroke-width="0.3" x1="101.45913802915013" x2="101.54496967792366" y1="184.9874750549273" y2="189.98673829345242" /><path d="M 101.47630435890484 185.9873277026323 a86.0,86.0 0 0,1 -42.54439059252881,-10.42667462771756" fill="none" id="id31" stroke="none" /><text fill="#e1ed5e" style="font-size:6.75px; font-family:Arial;" text-anchor="middle"><textPath startOffset="22.145653131862474" xlink:href="#id31">July</textPath></text><line stroke="#e1ed5e" stroke-width="0.3" x1="58.13341422392154" x2="55.67067388415222" y1="173.97424548756322" y2="178.32567169271397" /><path d="M 57.64086615596768 174.84453072859336 a86.0,86.0 0 0,1 -31.369924170532247,-30.572349798747897" fill="none" id="id32" stroke="none" /><text fill="#e1ed5e" style="font-size:6.75px; font-family:Arial;" text-anchor="middle"><textPath startOffset="22.145653131862474" xlink:href="#id32">August</textPath></text><line stroke="#e1ed5e" stroke-width="0.3" x1="26.387840678322732" x2="22.057713659400548" y1="142.50000000000003" y2="145.00000000000006" /><path d="M 25.521815274538298 143.00000000000003 a86.0,86.0 0 0,1 -11.493303480769221,-40.785679425670985" fill="none" id="id33" stroke="none" /><text fill="#e1ed5e" style="font-size:6.75px; font-family:Arial;" text-anchor="middle"><textPath startOffset="21.40746469413373" xlink:href="#id33">September</textPath></text><line stroke="#e1ed5e" stroke-width="0.3" x1="15.003131293944662" x2="10.003315487706104" y1="100.72959589197737" y2="100.7725132973878" /><path d="M 14.003168132696942 100.73817937305945 a86.0,86.0 0 0,1 10.791469493833604,-42.45332614584628" fill="none" id="id34" stroke="none" /><text fill="#e1ed5e" style="font-size:6.75px; font-family:Arial;" text-anchor="middle"><textPath startOffset="22.145653131862435" xlink:href="#id34">October</textPath></text><line stroke="#e1ed5e" stroke-width="0.3" x1="26.387840678322718" x2="22.05771365940052" y1="57.49999999999999" y2="54.99999999999999" /><path d="M 25.521815274538284 56.99999999999999 a86.0,86.0 0 0,1 29.574782752854787,-30.34633250058573" fill="none" id="id35" stroke="none" /><text fill="#e1ed5e" style="font-size:6.75px; font-family:Arial;" text-anchor="middle"><textPath startOffset="21.40746469413373" xlink:href="#id35">November</textPath></text><line stroke="#e1ed5e" stroke-width="0.3" x1="56.869717070023135" x2="54.33264160355391" y1="26.7553504044142" y2="22.446841604673864" /><path d="M 56.362301976729285 25.89364864446614 a86.0,86.0 0 0,1 42.16139366436587,-11.88097634709845" fill="none" id="id36" stroke="none" /><text fill="#e1ed5e" style="font-size:6.75px; font-family:Arial;" text-anchor="middle"><textPath startOffset="22.145653131862474" xlink:href="#id36">December</textPath></text></svg>